<svg id="Group_78" data-name="Group 78" xmlns="http://www.w3.org/2000/svg" xmlns:xlink="http://www.w3.org/1999/xlink" width="90.14" height="117.667" viewBox="0 0 90.14 117.667">
  <defs>
    <linearGradient id="linear-gradient" x1="31.834" y1="3.896" x2="30.691" y2="3.896" gradientUnits="objectBoundingBox">
      <stop offset="0" stop-color="#aa80f9"/>
      <stop offset="1" stop-color="#61afd7"/>
    </linearGradient>
    <linearGradient id="linear-gradient-2" x1="6.429" y1="-17.125" x2="6.647" y2="-15.823" gradientUnits="objectBoundingBox">
      <stop offset="0" stop-color="#8db5e3"/>
      <stop offset="0.004" stop-color="#8da7e3"/>
      <stop offset="1" stop-color="#71dff6"/>
    </linearGradient>
  </defs>
  <g id="Group_76" data-name="Group 76" transform="translate(0 0)">
    <path id="Path_192" data-name="Path 192" d="M-77.676,145.5c-3.266-.411-8.765-1.1-13.387-5.262-8.4-7.562-8.456-21.678-5.128-31.235,2.858-8.21,9.7-14.4,23.37-26.78,12.878-11.66,17.632-13.564,17.9-19.378.385-8.288-8.888-12.8-6.989-22.4.228-1.152,1.01-5.109,4.162-7.09,5.394-3.392,13.943,1.387,18.227,5.26,4.132,3.736,9.141,11.014,7.5,17.877-1.187,4.973-4.856,5.5-4.895,9.9-.039,4.42,3.662,5.215,6.481,11.991,1.126,2.707,3.387,8.141,1.734,13.437-2.137,6.848-8.883,7.266-9.187,12.707-.219,3.931,3.231,5,3.915,9.387.9,5.779-3.98,10.971-8.1,15.238C-46.92,134.172-60.008,147.727-77.676,145.5Z" transform="translate(98.248 -32.199)" fill="url(#linear-gradient)"/>
    <path id="Path_193" data-name="Path 193" d="M-38.009,50.109c-2.694,2.819,8.347,10.7,8.39,24.039.047,14.357-12.667,26.286-18.543,31.8-10.024,9.405-15.208,8.9-20.965,18.369-2.279,3.75-7.026,11.561-4.494,20.549.235.835,3,10.106,11.186,13.1,9.288,3.392,18.5-3.876,26.431-10.138,4.794-3.784,14.372-11.342,12.4-17.111-1.207-3.527-6.453-5.572-10.444-5.662-5.7-.128-9.615,3.712-10.3,2.866-.616-.763,1.971-4.612,5.928-7.877,7.914-6.532,13.216-4.053,18.912-9.792.691-.7,6.082-6.287,4.867-12.9-.7-3.813-3.616-8.065-6.842-8.217-3.649-.172-6.12,4.975-7.078,4.394-.915-.556.788-5.6,3.2-10.338,3.543-6.963,5.663-7.465,6.656-11.62C-17.194,65.23-20.5,59.6-20.991,58.8-25.558,51.282-35.706,47.7-38.009,50.109Z" transform="translate(81.155 -46.89)" fill="#fff" opacity="0.16" style="mix-blend-mode: screen;isolation: isolate"/>
  </g>
  <g id="Group_77" data-name="Group 77" transform="translate(21.634 56.195)">
    <path id="Path_194" data-name="Path 194" d="M-236.847,464.307c-1.219,2.194,4.979,13.055,13.444,17.275,1.7.846,4.758,2.372,8.138,1.711,4.125-.807,4.044-3.956,8.334-5.156,3.936-1.1,4.88,1.307,9.79.088,1.84-.457,5.578-1.385,6.428-4.81.493-1.988-.409-3.115.307-4.229,1.281-1.994,4.531,1.059,8.269-.255,2.023-.711,3.111-2.38,5.286-5.716,1.981-3.038,3.1-4.749,2.684-6.959-.6-3.241-3.82-3.92-4.016-6.184-.317-3.661,7.969-3.35,9.46-9.433.951-3.878-1.356-8.333-1.782-9.122-4.585-8.5-17.727-12.447-23.794-7.1-4.783,4.218-3.4,12.655-9.2,14.441-2.014.62-3.345-.038-5.69,1.357-3.024,1.8-4.416,5.041-5.13,6.762-2.705,6.52-.785,10.84-3.506,12.708-1.716,1.178-2.707-.383-5.692.931-2.727,1.2-2.665,2.841-4.9,3.922C-232.426,466.484-236.019,462.818-236.847,464.307Z" transform="translate(237 -421.982)" fill="url(#linear-gradient-2)"/>
    <path id="Path_195" data-name="Path 195" d="M-127.58,440.407c-2.056-2.86-6.81-3.455-9.962-2.794a12.888,12.888,0,0,0-9.431,9.537c-1.515,7.012,4.859,11.813,2.3,15.564a5.856,5.856,0,0,1-6.647,1.883c-3.57-1.675-2.23-8.438-4.828-9.157-1.858-.514-4.995,2.267-6.142,5.584-2.292,6.629,4.07,13.351,1.909,15.278-.51.454-2.694.166-7.064-.41-3.3-.435-3.691-.642-4.583-.32-2.7.974-2.284,4.01-4.828,5.242-2.935,1.421-6.354-1.23-6.81-.5-.478.761,2.7,4.6,6.532,6.367,9.085,4.18,20.912-3.749,25.082-6.545C-135.242,468.865-122.338,447.7-127.58,440.407Z" transform="translate(187.22 -435.15)" fill="#fff" opacity="0.16" style="mix-blend-mode: screen;isolation: isolate"/>
  </g>
</svg>
