<svg xmlns="http://www.w3.org/2000/svg" width="24.824" height="32" viewBox="0 0 24.824 32">
  <path id="Path_424" data-name="Path 424" d="M95.226,62.612V60.088a8.575,8.575,0,0,0-6.491-8.317V49.2a2.081,2.081,0,1,0-4.161,0v2.566a8.575,8.575,0,0,0-6.491,8.317v2.525a10.179,10.179,0,0,1-2.981,7.2,2.934,2.934,0,0,0,2.074,5.008h5.172a4.306,4.306,0,1,0,8.613,0h5.172a2.934,2.934,0,0,0,2.074-5.008A10.178,10.178,0,0,1,95.226,62.612ZM86.654,76.627a1.812,1.812,0,0,1-1.81-1.81h3.62A1.812,1.812,0,0,1,86.654,76.627Z" transform="translate(-74.242 -47.124)" fill="#d8d8d8"/>
</svg>
