<svg xmlns="http://www.w3.org/2000/svg" width="414" height="232.875" viewBox="0 0 414 232.875">
  <g id="Group_47" data-name="Group 47" transform="translate(1713 712)">
    <g id="Group_46" data-name="Group 46" transform="translate(-1713 -712)">
      <g id="Group_45" data-name="Group 45" transform="translate(0)">
        <path id="Path_92" data-name="Path 92" d="M-1210-638.966V-660h-219.259c34.822.487,112.2,6.109,120.719,25.515,2.537,5.783,2.688,10.148,1.051,13.513-10.963,22.542-52.7,23.726-93.082,43.6-62.737,30.87-44.231,68.354-96.8,87.5-49.029,17.859-86.678-15.621-125.184,10.027-.49.326-.97.659-1.445.994v51.726h414v-98.8c-6.244-8.471-9.934-15.077-9.436-24.238,2.42-44.5-35.731-39.662-37.521-64.168C-1258.354-633.457-1230.04-639.582-1210-638.966Z" transform="translate(1624 660)" fill="#ebeff2"/>
      </g>
      <path id="Path_93" data-name="Path 93" d="M-1210-648.848V-660h-251.4c33.228.487,151.518-2.485,159.186,31.163a15.255,15.255,0,0,1-.551,8.09c-10.05,32.781-58.548,29.57-109.3,67.157-41.644,30.844-39.175,57.147-78.354,68.892-25.143,7.537-49.486,5.5-49.486,5.5-28.165-2.359-47.105-13.7-70.767-4.528A57.572,57.572,0,0,0-1624-476.374v49.249h414V-516.62c-4.74-3.326-10.781-8.651-14.186-16.593-4.768-11.121.458-16.119-1.038-26.522-3.627-25.228-39.205-29.529-40.482-54.984a26.461,26.461,0,0,1,2.422-12.614C-1252.78-649.28-1212.668-648.9-1210-648.848Z" transform="translate(1624 660)" fill="#f4f7fa"/>
    </g>
  </g>
</svg>
