<svg xmlns="http://www.w3.org/2000/svg" width="24" height="24" viewBox="0 0 24 24">
  <g id="Group_230" data-name="Group 230" transform="translate(-904 -808)">
    <g id="help" transform="translate(904 808)">
      <path id="Path_226" data-name="Path 226" d="M24,16.242a7.776,7.776,0,0,0-5.681-7.476A9.164,9.164,0,1,0,1.271,13.822L.034,18.294l4.472-1.237a9.13,9.13,0,0,0,4.26,1.261,7.76,7.76,0,0,0,11.423,4.6l3.777,1.045L22.921,20.19A7.73,7.73,0,0,0,24,16.242ZM4.728,15.537l-2.677.741L2.791,13.6l-.169-.264a7.755,7.755,0,1,1,2.37,2.37Zm17.221,6.413-1.987-.55-.265.173a6.354,6.354,0,0,1-9.477-3.306,9.181,9.181,0,0,0,8.046-8.046A6.354,6.354,0,0,1,21.572,19.7l-.173.265Zm0,0" fill="#2d4b58"/>
      <path id="Path_227" data-name="Path 227" d="M180.5,271h1.406v1.406H180.5Zm0,0" transform="translate(-172.039 -258.297)" fill="#2d4b58"/>
      <path id="Path_228" data-name="Path 228" d="M139.719,92.813a1.392,1.392,0,0,1-.458,1.038l-1.652,1.512v1.716h1.406v-1.1l1.195-1.093a2.812,2.812,0,1,0-4.71-2.076h1.406a1.406,1.406,0,0,1,2.813,0Zm0,0" transform="translate(-129.148 -85.781)" fill="#2d4b58"/>
    </g>
  </g>
</svg>
