<svg xmlns="http://www.w3.org/2000/svg" width="22" height="22" viewBox="0 0 14 25">
  <path id="Path_425" data-name="Path 425" d="M1.335,16V6.006H.623A.623.623,0,0,1,0,5.382V3.294A.623.623,0,0,1,.623,2.67H3.338V2.626a2.626,2.626,0,1,1,5.252,0V2.67h2.715a.623.623,0,0,1,.623.623V5.382a.623.623,0,0,1-.623.623h-.712L10.682,16Zm1.247-1.227H9.347V6.006H2.582ZM1.247,4.759h9.435V3.917H1.247ZM4.585,2.626V2.67H7.344V2.626a1.38,1.38,0,1,0-2.759,0Zm2.091,10.1V8.053a.623.623,0,0,1,1.247,0v4.673a.623.623,0,0,1-1.247,0Zm-2.67,0V8.053a.623.623,0,0,1,1.247,0v4.673a.623.623,0,0,1-1.247,0Z"/>
</svg>
