<svg xmlns="http://www.w3.org/2000/svg" width="60" height="60" viewBox="0 0 60 60">
  <g id="Group_35" data-name="Group 35" transform="translate(-515 -341)">
    <g id="doctor" transform="translate(515 341)">
      <circle id="Ellipse_3" data-name="Ellipse 3" cx="30" cy="30" r="30" fill="#ecf0f1"/>
      <circle id="Ellipse_4" data-name="Ellipse 4" cx="30" cy="30" r="30" fill="#efefef"/>
      <path id="Path_39" data-name="Path 39" d="M201.829,237.322l-.815,4.1-2.731.939,1.616,25.5,10.392-.059.485-25.922-1.744-.549-.889-4.179-6.314.174Z" transform="translate(-175.046 -209.357)" fill="#f0ba7d"/>
      <path id="Path_40" data-name="Path 40" d="M191.735,342.31c4.547,2.2,9.224,2.667,14.148.125l-.168,19.032a30.207,30.207,0,0,1-14.147-.23Z" transform="translate(-169.119 -302.196)" fill="#21d0c3"/>
      <path id="Path_41" data-name="Path 41" d="M258.9,275.471l7.921,2.16c2.054.634,3.889,1.849,3.948,4.031l.434,16.131a29.947,29.947,0,0,1-5.821,3.174l-.505-8.921-1.387,9.622a29.939,29.939,0,0,1-9.452,1.521c-.086,0-.172,0-.258,0l0-8.178Z" transform="translate(-224.033 -243.189)" fill="#eef3f7"/>
      <g id="Group_31" data-name="Group 31" transform="translate(12.886 32.2)">
        <path id="Path_42" data-name="Path 42" d="M258.822,274.993l1.044.421,3.56,5.345-4.173-.067,2.587,1.384-8.066,12.51,5.049-19.593Z" transform="translate(-236.92 -274.967)" fill="#fff"/>
        <path id="Path_43" data-name="Path 43" d="M122.674,274.774l-7.958,2.02c-2.065.6-3.921,1.78-4.018,3.961l-.734,16.459a29.955,29.955,0,0,0,5.765,3.136l.677-9.109,1.239,9.818a29.938,29.938,0,0,0,9.174,1.511l0-8.178-4.142-19.619Z" transform="translate(-109.964 -274.774)" fill="#fff"/>
      </g>
      <path id="Path_44" data-name="Path 44" d="M183.631,274.306l-1.245.477-3.461,5.207L183.1,280l-2.611,1.338,7.208,12.644-4.066-19.673Z" transform="translate(-157.958 -242.161)" fill="#eef3f7"/>
      <path id="Path_45" data-name="Path 45" d="M182.355,100.506c-.133,1.342.136,4.323,1.764,4.21,0,0,2.344,6.831,6.857,7.6,3.9-.712,6.266-6.9,6.446-7.488.537.183,2.039-2.315.887-4.359-.33-.586-1.265-.112-1.265-.112l-.072-1.707c-6.157.6-10-5.357-10-5.357a9.872,9.872,0,0,0-3.163,7.185,2.09,2.09,0,0,0-.93-.284.913.913,0,0,0-.529.306Z" transform="translate(-160.959 -82.366)" fill="#fed298"/>
      <path id="Path_46" data-name="Path 46" d="M172.217,82.645l.8-4a17.126,17.126,0,0,1-3.515-5.705c-1.574.176-2.206-4.163-1.147-4.314a1.539,1.539,0,0,1,.809.082c.238-3.353.884-4.372,3.106-7.185,0,0,3.881,6.53,10.033,5.932l.088,1.408a.729.729,0,0,1,1.266.174c.721,1.185-.222,3.879-1.095,4.044a14.918,14.918,0,0,1-3.152,5.58l.83,3.9c2.308.748,4.534,1.325,6.768,1.919-1.135-6.919-1.785-14.405-3.141-20.8-1.3-6.133-8.41-7.848-12.5-5.124a7.618,7.618,0,0,0-4.169,6.131c-.643,4.711-.4,5.165-.4,5.165l-1.136,14.505c2.106-.535,4.545-1.019,6.554-1.709Z" transform="translate(-146.249 -50.585)" fill="#666"/>
      <path id="Path_47" data-name="Path 47" d="M335.076,386.735a2.151,2.151,0,1,1,2.486-1.754A2.152,2.152,0,0,1,335.076,386.735Z" transform="translate(-294.233 -337.644)" fill="#fefefe"/>
      <path id="Path_48" data-name="Path 48" d="M336.042,387.557a2.026,2.026,0,1,1,2.341-1.651A2.026,2.026,0,0,1,336.042,387.557Z" transform="translate(-295.177 -338.589)" fill="#0f7986"/>
      <path id="Path_49" data-name="Path 49" d="M343.013,393.486a1.121,1.121,0,1,1,1.3-.914,1.121,1.121,0,0,1-1.3.914Z" transform="translate(-301.995 -345.409)" fill="#ebecec"/>
      <path id="Path_50" data-name="Path 50" d="M351.147,380.869l.493.085.265-1.534-.492-.085-.265,1.534Z" transform="translate(-309.997 -334.882)" fill="#fefefe"/>
      <path id="Path_51" data-name="Path 51" d="M139.082,341.486l.923-.183a1.457,1.457,0,0,0,1.143-1.709l-1.085-5.469a4.192,4.192,0,0,0-3.869-3.349,6.958,6.958,0,0,0-4.2.833,4.186,4.186,0,0,0-2.288,4.572l1.085,5.469a1.451,1.451,0,0,0,.619.924h0a1.448,1.448,0,0,0,1.09.219l.922-.183-.075-.38-.923.183a1.063,1.063,0,0,1-.8-.16h0a1.065,1.065,0,0,1-.454-.677l-1.085-5.469a3.817,3.817,0,0,1,2.1-4.161,6.565,6.565,0,0,1,3.962-.786,3.824,3.824,0,0,1,3.536,3.042l1.086,5.469a1.069,1.069,0,0,1-.838,1.253l-.923.183.076.38Z" transform="translate(-114.429 -291.969)" fill="#21d0c3"/>
      <path id="Path_52" data-name="Path 52" d="M139.379,333.966l-.166-.835a4.315,4.315,0,0,0-3.98-3.452,7.086,7.086,0,0,0-4.279.848,4.309,4.309,0,0,0-2.351,4.71l.166.835.633-.126-.166-.835a3.7,3.7,0,0,1,2.035-4.024,6.442,6.442,0,0,1,3.883-.77,3.7,3.7,0,0,1,3.426,2.939l.166.835.634-.126Z" transform="translate(-113.453 -291)" fill="#4d4d4d"/>
      <g id="Group_32" data-name="Group 32" transform="translate(18.156 48.9)">
        <path id="Path_53" data-name="Path 53" d="M155.034,426.546l.494-.1a.542.542,0,1,0-.107-.538l-.494.1Z" transform="translate(-154.927 -424.577)" fill="#076673"/>
        <path id="Path_54" data-name="Path 54" d="M202.06,417.906l-.493.1a.542.542,0,1,1-.107-.538l.494-.1.107.538Z" transform="translate(-195.17 -417.284)" fill="#076673"/>
      </g>
      <path id="Path_55" data-name="Path 55" d="M162.535,323.231l-.188-.949-.374.075-.374.074.19.958q.214-.063.433-.106Q162.377,323.252,162.535,323.231Z" transform="translate(-142.661 -284.514)" fill="#666"/>
      <g id="Group_33" data-name="Group 33" transform="translate(18.87 49.046)">
        <path id="Path_56" data-name="Path 56" d="M161.22,427.128a.164.164,0,1,0-.193-.129.164.164,0,0,0,.193.129Z" transform="translate(-161.024 -425.832)" fill="#0f7986"/>
        <path id="Path_57" data-name="Path 57" d="M202.873,418.847a.164.164,0,1,0-.193-.129A.164.164,0,0,0,202.873,418.847Z" transform="translate(-197.796 -418.522)" fill="#0f7986"/>
      </g>
      <path id="Path_58" data-name="Path 58" d="M342.883,394.307a1.06,1.06,0,1,1,1.225-.865A1.06,1.06,0,0,1,342.883,394.307Z" transform="translate(-301.924 -346.241)" fill="#fefefe"/>
      <g id="Group_34" data-name="Group 34" transform="translate(18.913 32.094)">
        <path id="Path_59" data-name="Path 59" d="M166.916,274.417c-.017,0-5.843.049-4.859,5.146l-.542.1c-1.11-5.747,5.376-5.8,5.394-5.8l.006.55Z" transform="translate(-161.387 -273.867)" fill="#4d4d4d"/>
        <path id="Path_60" data-name="Path 60" d="M307.677,274.091a5.514,5.514,0,0,1,4.2,2.005c1.384,1.684,2.354,4.776,1.629,10.445l-.546-.069c.7-5.487-.205-8.441-1.508-10.026a4.973,4.973,0,0,0-3.79-1.8l.013-.55Z" transform="translate(-290.522 -274.065)" fill="#4d4d4d"/>
      </g>
    </g>
  </g>
</svg>
