<?xml version="1.0" encoding="utf-8"?>
<!DOCTYPE svg PUBLIC "-//W3C//DTD SVG 1.1//EN" "http://www.w3.org/Graphics/SVG/1.1/DTD/svg11.dtd">
<svg xmlns="http://www.w3.org/2000/svg" xmlns:xlink="http://www.w3.org/1999/xlink" version="1.1" baseProfile="full" width="24" height="24" viewBox="0 0 24 24" enable-background="new 0 0 2.67 5.71" xml:space="preserve">
	<path fill="#2d4b58" fill-opacity="1" stroke-linejoin="round" d="M 603.833,299.381L 341.333,97.4429L 78.8332,299.381L 56.1588,269.907L 341.333,50.5256L 507.111,178.057L 507.111,84.4586L 545.929,84.4586L 545.929,207.92L 626.508,269.908L 603.833,299.381 Z M 536.096,530.668L 422.132,530.668L 422.132,353.275L 268.504,353.275L 268.504,530.668L 146.572,530.668L 146.572,297.796L 341.333,147.977L 536.096,297.796M 682.667,262.584L 585.975,188.2L 585.975,44.4104L 467.063,44.4104L 467.063,96.7221L 341.333,0L 0,262.583L 71.5113,355.54L 106.525,328.604L 106.525,570.715L 308.551,570.715L 308.551,393.321L 382.085,393.321L 382.085,570.715L 576.143,570.715L 576.143,328.604L 611.156,355.54L 682.667,262.584 Z "/>
</svg>
