<svg xmlns="http://www.w3.org/2000/svg" xmlns:xlink="http://www.w3.org/1999/xlink" width="76.257" height="89.238" viewBox="0 0 76.257 89.238">
  <defs>
    <linearGradient id="linear-gradient" x1="-87.357" y1="-0.046" x2="-86.168" y2="1.189" gradientUnits="objectBoundingBox">
      <stop offset="0" stop-color="#192e44"/>
      <stop offset="1" stop-color="#394d76"/>
    </linearGradient>
    <linearGradient id="linear-gradient-2" x1="-624.876" y1="-240.736" x2="-623.445" y2="-240.736" gradientUnits="objectBoundingBox">
      <stop offset="0" stop-color="#311944"/>
      <stop offset="1" stop-color="#6b3976"/>
    </linearGradient>
    <linearGradient id="linear-gradient-3" x1="-1080.833" y1="1.454" x2="-1077.305" y2="-4.779" gradientUnits="objectBoundingBox">
      <stop offset="0" stop-color="#ffc444"/>
      <stop offset="0.996" stop-color="#f36f56"/>
    </linearGradient>
    <linearGradient id="linear-gradient-4" x1="-891.882" y1="0.5" x2="-890.882" y2="0.5" xlink:href="#linear-gradient-2"/>
    <linearGradient id="linear-gradient-5" x1="-1366.573" y1="3.065" x2="-1364.073" y2="-0.811" xlink:href="#linear-gradient-3"/>
    <linearGradient id="linear-gradient-6" x1="-261.019" y1="0.092" x2="-260.662" y2="1.42" gradientUnits="objectBoundingBox">
      <stop offset="0" stop-color="#80d4f9"/>
      <stop offset="1" stop-color="#61a8d7"/>
    </linearGradient>
    <linearGradient id="linear-gradient-7" x1="-99.031" y1="1.066" x2="-98.838" y2="0.491" gradientUnits="objectBoundingBox">
      <stop offset="0" stop-color="#80e0f9"/>
      <stop offset="1" stop-color="#61bbd7"/>
    </linearGradient>
    <linearGradient id="linear-gradient-8" x1="-103.933" y1="2.203" x2="-103.731" y2="1.014" gradientUnits="objectBoundingBox">
      <stop offset="0" stop-color="#aa80f9"/>
      <stop offset="0.996" stop-color="#6165d7"/>
    </linearGradient>
    <linearGradient id="linear-gradient-9" x1="-111.267" y1="0.003" x2="-111.115" y2="2.181" gradientUnits="objectBoundingBox">
      <stop offset="0" stop-color="#80d8f9"/>
      <stop offset="1" stop-color="#61b7d7"/>
    </linearGradient>
    <linearGradient id="linear-gradient-10" x1="255.672" y1="-67.893" x2="255.724" y2="-69.655" xlink:href="#linear-gradient-3"/>
    <linearGradient id="linear-gradient-11" x1="505.637" y1="-96.203" x2="505.593" y2="-93.032" xlink:href="#linear-gradient-3"/>
    <linearGradient id="linear-gradient-12" x1="132.094" y1="0.5" x2="133.094" y2="0.5" gradientUnits="objectBoundingBox">
      <stop offset="0" stop-color="#80e8f9"/>
      <stop offset="1" stop-color="#61afd7"/>
    </linearGradient>
    <linearGradient id="linear-gradient-13" x1="-169.227" y1="0.5" x2="-168.227" y2="0.5" gradientUnits="objectBoundingBox">
      <stop offset="0" stop-color="#40447e"/>
      <stop offset="0.996" stop-color="#3c3b6b"/>
    </linearGradient>
    <linearGradient id="linear-gradient-14" x1="-123.058" y1="-0.074" x2="-122.58" y2="0.951" xlink:href="#linear-gradient-13"/>
    <linearGradient id="linear-gradient-15" x1="-155.983" y1="-0.105" x2="-155.379" y2="0.95" xlink:href="#linear-gradient-13"/>
    <linearGradient id="linear-gradient-16" x1="329.021" y1="0.142" x2="328.018" y2="2.24" xlink:href="#linear-gradient-3"/>
  </defs>
  <g id="Group_410" data-name="Group 410" transform="translate(-118.051 -110.462)">
    <path id="Path_302" data-name="Path 302" d="M1396.553,994.583c16.557,2.812,21.957,1.71,22.24,3.545.426,2.758-11.381,7.7-22.885,8.38-3.083.183-16.931,1-19.34-5.157a7.045,7.045,0,0,1,1.612-7.091C1381.21,991.208,1386.337,992.848,1396.553,994.583Z" transform="translate(-1238.804 -832.709)" fill="#61a8d7" opacity="0.19" style="mix-blend-mode: multiply;isolation: isolate"/>
    <g id="Group_64" data-name="Group 64" transform="translate(118.051 110.462)">
      <g id="Group_61" data-name="Group 61" transform="translate(4.608)">
        <path id="Path_133" data-name="Path 133" d="M1591.594,119.849c-1.033-.67-.092-2.617-.036-6.8.068-5.127-1.294-6.082-.2-8.094,1.337-2.46,4.7-3.478,6.934-3.526.492-.01.607-.279,4.728.788,7.425,1.923,9.284-.138,12.609,1.921,3.213,1.99,1.806,4.168,4.926,6.5,5.057,3.782,10.374-.307,13.988,2.857,3.418,2.992,3.5,10.616-.1,14.776-4.076,4.716-11.426,3.3-16.352,2.364a30.106,30.106,0,0,1-11.723-5.319,31.211,31.211,0,0,1-6.4-6.354,2.312,2.312,0,0,0-1.428-.838,2.5,2.5,0,0,0-1.675.591C1595.31,119.792,1592.609,120.506,1591.594,119.849Z" transform="translate(-1565.476 -101.39)" fill="url(#linear-gradient)"/>
        <path id="Path_134" data-name="Path 134" d="M1543.781,156.4c-1.328-1.21-6.067,1.122-9.207,4.217-3.689,3.636-3.406,6.584-6.625,11.1a26.572,26.572,0,0,1-9.207,7.916l1.033,2.581a18.612,18.612,0,0,0,11.272-2.753c2.991-1.953,4.53-4.541,7.486-9.637C1541.5,164.711,1545.441,157.915,1543.781,156.4Z" transform="translate(-1513.513 -140.754)" fill="#fff"/>
        <path id="Path_135" data-name="Path 135" d="M1503.707,398.5l1.51-3.208a2.781,2.781,0,0,1,.968-1.125l.748-.5s1.787-.048,2.065,1.076c.06,1.427-2.712,4.614-4.466,5.88-.291.21-.706.49-.958.346C1503.146,400.725,1503.446,399.413,1503.707,398.5Z" transform="translate(-1502.441 -311.771)" fill="url(#linear-gradient-2)"/>
        <path id="Path_136" data-name="Path 136" d="M1509.875,387.442a2.964,2.964,0,0,1-.387,2.5c-.229.283-2.08,3.336-1.32,3.829.343.222,2.7-2.7,2.924-3.147.207-.405.341-.31.353-1.414a5.744,5.744,0,0,1,.272-1.678Z" transform="translate(-1505.772 -307.29)" fill="url(#linear-gradient-3)"/>
        <path id="Path_137" data-name="Path 137" d="M1501.512,346.036a6.254,6.254,0,0,0-1.4,4.18c.272,2.186,3.2-1.01,3.607-2.09s.885-2.619.885-2.619S1502.552,344.231,1501.512,346.036Z" transform="translate(-1500.083 -276.791)" fill="url(#linear-gradient-4)"/>
        <path id="Path_138" data-name="Path 138" d="M1504.164,337.385s.453,2.323-.411,3.549c-.43.611-1.011,1.129-.841,1.626a.923.923,0,0,0,.917.535c.705-.073,1.1-1.154,1.372-1.916a20.041,20.041,0,0,0,.634-3.535Z" transform="translate(-1502.097 -271.259)" fill="url(#linear-gradient-5)"/>
        <path id="Path_139" data-name="Path 139" d="M1504.351,282.782l-1.542-.562a17.369,17.369,0,0,1-1.453-8.5c.84-9.4,9.537-14.385,10.5-14.919,2.37,1.189,4.769,2.866,4.857,4.98.109,2.654-3.507,4.057-6.906,7.938A25.072,25.072,0,0,0,1504.351,282.782Z" transform="translate(-1500.953 -214.698)" fill="url(#linear-gradient-6)"/>
        <path id="Path_140" data-name="Path 140" d="M1511.075,280.579a37.5,37.5,0,0,1-.775-15.166c.741-4.713,2.247-14.3,8.648-17.876a24.49,24.49,0,0,0,5.832-3.65,20.652,20.652,0,0,0,4.106-5.062c8.562-2.511,16.457-1.493,19.942,3.1a6.665,6.665,0,0,1,1.6,3.378c.44,3.829-3.322,8.438-7.543,9.4-5.365,1.223-8.477-4.285-13.23-2.452-1.33.512-2.457,1.783-4.711,4.324a35.952,35.952,0,0,0-5.09,7.408c-1.816,3.554-3.194,6.177-3.394,9.577a9.2,9.2,0,0,1-1,4.118,8.579,8.579,0,0,1-2.4,2.754Z" transform="translate(-1507.122 -199.352)" fill="url(#linear-gradient-7)"/>
        <path id="Path_141" data-name="Path 141" d="M1555.307,245.3a6.663,6.663,0,0,0-1.606-3.378c-3.484-4.591-11.381-5.609-19.942-3.1a20.65,20.65,0,0,1-4.107,5.062,24.49,24.49,0,0,1-5.832,3.65c-3.909,2.183-5.991,6.608-7.189,10.8,1.778-2.757,3.3-3.49,4.479-3.5,1.686-.019,2.44,1.423,4.453,1.226,2.152-.21,2.644-1.99,4.388-2.194a3.249,3.249,0,0,1,1.936.43,7.657,7.657,0,0,1,2.646-2.043c4.753-1.833,7.865,3.676,13.23,2.452C1551.985,253.737,1555.747,249.128,1555.307,245.3Z" transform="translate(-1511.995 -199.352)" opacity="0.3" fill="url(#linear-gradient-8)" style="mix-blend-mode: multiply;isolation: isolate"/>
        <path id="Path_142" data-name="Path 142" d="M1530.019,263.158a28.214,28.214,0,0,1,4.261.1c8.542.844,10.9,5.07,17.957,6.1,1.67.244,9.106,1.33,12.326-2.969,2.312-3.086,1.962-8.4-.567-10.5-1.07-.885-2.13-.861-8.984-.8-2.582.023-5.164.031-7.745.065-10.927.139-13.017-.618-15,1.19C1531.335,257.19,1529.978,259,1530.019,263.158Z" transform="translate(-1521.63 -212.006)" fill="url(#linear-gradient-9)"/>
        <g id="Group_59" data-name="Group 59" transform="translate(18.735 15.361)">
          <g id="Group_58" data-name="Group 58">
            <path id="Path_143" data-name="Path 143" d="M1579.667,156.943s8.625-2.515,12.424,1.785a7.616,7.616,0,0,1,1.65,3.832c2.045,10.212-5.689,16.346-2.642,21.733,1.21,2.139,3.341,2.784,4.855,6.629.257.651,1.184,3.005.333,3.747-.749.653-1.982-.726-4.171-.46-2.318.282-2.86,2.063-4.42,1.8-1.017-.17-1.455-1.038-2.954-3.2-2.169-3.134-3.253-4.7-4.031-5.251-3.068-2.168-5.438.659-8.937-1.487-1.267-.777-5.959-6.819-4.578-5.159,3.286-4.1,4.049-7.481,4.128-9.833.086-2.578-.657-3.749,0-6.8a15.285,15.285,0,0,1,3.378-6.32C1575.081,157.545,1575.534,157.108,1579.667,156.943Z" transform="translate(-1566.945 -156.211)" fill="#fff"/>
          </g>
        </g>
        <g id="Group_60" data-name="Group 60" transform="translate(27.177 8.398)">
          <path id="Path_144" data-name="Path 144" d="M1604.125,138.855c-.117.546-.712,3.474.487,4.227a6.329,6.329,0,0,0,1.756.444c.653.123,1.2.2,1.588.244a4,4,0,0,1-.788,2.017c-1.589,2.038-4.774,1.511-5.228,1.428a11.948,11.948,0,0,1-3.56-1.089,8.115,8.115,0,0,1-1.305-1.158,22.631,22.631,0,0,1,2.712-1.349,15.643,15.643,0,0,1,1.753-.43q.132-.848.265-1.7Z" transform="translate(-1597.076 -136.755)" fill="url(#linear-gradient-10)"/>
          <path id="Path_145" data-name="Path 145" d="M1609.771,134.92a2.921,2.921,0,0,1-2.3,2.524c-1.868.338-3.274-4.175-2.318-5.343a2.5,2.5,0,0,1,1.788-.74,2.775,2.775,0,0,1,2.327,2.253c.323-.34.726-.438.924-.3.251.18.117.706.086.825A1.514,1.514,0,0,1,1609.771,134.92Z" transform="translate(-1602.666 -131.36)" fill="url(#linear-gradient-11)"/>
        </g>
        <path id="Path_146" data-name="Path 146" d="M1567.2,215.925c.4-.493.752-.975,1.078-1.448a17.149,17.149,0,0,1,4.645-.894c2.852-.138,4.415.533,6.356-.636,2.2-1.326,1.814-3.167,3.941-4.2,2.239-1.082,3.822.141,5.975-.254,1.3-.238,2.885-1.108,4.5-3.645-1.238,6.109-4.839,10.484-2.594,14.452,1.21,2.139,3.341,2.784,4.855,6.629.257.651,1.184,3.005.333,3.747-.749.653-1.982-.726-4.171-.46-2.318.282-2.86,2.063-4.42,1.8-1.017-.17-1.455-1.038-2.954-3.2-2.169-3.134-3.253-4.7-4.031-5.251-3.068-2.168-5.438.659-8.937-1.487C1570.508,220.306,1565.816,214.265,1567.2,215.925Z" transform="translate(-1548.21 -175.862)" opacity="0.3" fill="url(#linear-gradient-12)" style="mix-blend-mode: multiply;isolation: isolate"/>
      </g>
      <g id="Group_62" data-name="Group 62" transform="translate(0 30.243)">
        <path id="Path_147" data-name="Path 147" d="M1557.225,248.109l19.516.95a.818.818,0,0,1,.655.385l.541.867a.634.634,0,0,1-.562.969l-20.672-.788Z" transform="translate(-1536.229 -237.241)" fill="url(#linear-gradient-13)"/>
        <path id="Path_148" data-name="Path 148" d="M1484.335,209.323l20.162.391a1.692,1.692,0,0,1,1.438.855l6.982,12.284L1491.623,222a1.735,1.735,0,0,1-1.418-.842l-6.468-10.807A.683.683,0,0,1,1484.335,209.323Z" transform="translate(-1483.638 -209.323)" fill="url(#linear-gradient-14)"/>
        <path id="Path_149" data-name="Path 149" d="M1521.71,211.552a1.691,1.691,0,0,0-1.438-.855l-.441-.008a3.141,3.141,0,0,1-.664,1.727c-1.243,1.5-3.308.575-4.848,2.163-1.691,1.745-.129,3.821-1.641,5.445-1.592,1.709-4.165.317-7.123,1.411l.426.711a1.733,1.733,0,0,0,1.418.842l21.294.848Z" transform="translate(-1499.413 -210.305)" opacity="0.3" fill="url(#linear-gradient-15)" style="mix-blend-mode: multiply;isolation: isolate"/>
      </g>
      <g id="Group_63" data-name="Group 63" transform="translate(38.158 16.636)">
        <path id="Path_150" data-name="Path 150" d="M1620.583,184.585l-.762-2.012c2.808-.77,6.69-1.907,10.673-3.33.624-.223,1.364-.5,1.607-1.155.681-1.841-3.648-3.749-5.331-7.769-1.556-3.718-.7-8.878,1.107-9.487,3.759-1.269,17.089,15.324,12.328,22.318C1637.513,187.1,1629.217,187.733,1620.583,184.585Z" transform="translate(-1619.821 -160.762)" fill="#fff"/>
      </g>
      <path id="Path_151" data-name="Path 151" d="M1604.049,237.553a4.937,4.937,0,0,0-4.008.087,5.271,5.271,0,0,0-1.521,1.09c-.064.088-.829,1.147-.55,1.486.223.272,1.088.047,2.127-.6a8.058,8.058,0,0,1,1.861-.045c1.426.131,2.08.582,2.6.193a1.285,1.285,0,0,0,.372-1.335A1.588,1.588,0,0,0,1604.049,237.553Z" transform="translate(-1565.891 -199.106)" fill="url(#linear-gradient-16)"/>
    </g>
  </g>
</svg>
