<svg xmlns="http://www.w3.org/2000/svg" xmlns:xlink="http://www.w3.org/1999/xlink" width="82.113" height="30.285" viewBox="0 0 82.113 30.285">
  <defs>
    <linearGradient id="linear-gradient" y1="0.617" x2="1" y2="0.624" gradientUnits="objectBoundingBox">
      <stop offset="0" stop-color="#178097"/>
      <stop offset="1" stop-color="#95c9d5"/>
    </linearGradient>
    <linearGradient id="linear-gradient-2" x1="0.5" x2="0.5" y2="1" gradientUnits="objectBoundingBox">
      <stop offset="0" stop-color="#1faa4c"/>
      <stop offset="1" stop-color="#9ee266"/>
    </linearGradient>
  </defs>
  <g id="Group_344" data-name="Group 344" transform="translate(-118 -335)">
    <path id="Path_330" data-name="Path 330" d="M3.349-5.841q.144-.547.357-1.174l.757-2.216H5.592V-4.6h-.8V-6.946q0-.516.039-1.2H4.8q-.056.2-.131.443t-.157.485L3.6-4.6H3.084L2.176-7.216q-.082-.239-.157-.485t-.131-.443h-.03Q1.9-7.5,1.9-6.949V-4.6h-.8V-9.231H2.215l.757,2.206q.19.551.357,1.184Zm4.095.533H9.6v.71H6.641V-9.231H9.483v.71H7.444v1.2H9.195v.71H7.444Zm3.01.71V-9.231h1.161q.154,0,.313.01t.31.031q.151.021.292.05a2.031,2.031,0,0,1,.259.071,2.192,2.192,0,0,1,.62.319,1.908,1.908,0,0,1,.451.474,2.112,2.112,0,0,1,.275.611,2.737,2.737,0,0,1,.093.732,2.993,2.993,0,0,1-.079.7,2.138,2.138,0,0,1-.239.6,1.87,1.87,0,0,1-.4.476,2.057,2.057,0,0,1-.579.338,2.945,2.945,0,0,1-.633.166,5.185,5.185,0,0,1-.8.055Zm1.134-.71a2.44,2.44,0,0,0,1.1-.2,1.219,1.219,0,0,0,.531-.533,1.944,1.944,0,0,0,.18-.893,2.052,2.052,0,0,0-.059-.512,1.443,1.443,0,0,0-.17-.407,1.221,1.221,0,0,0-.27-.306,1.463,1.463,0,0,0-.359-.211,1.82,1.82,0,0,0-.416-.111,3.471,3.471,0,0,0-.515-.035h-.354v3.213ZM17.213-8.6a1.571,1.571,0,0,0-.6.114,1.308,1.308,0,0,0-.475.332,1.542,1.542,0,0,0-.31.538,2.223,2.223,0,0,0-.111.732,2.307,2.307,0,0,0,.1.718,1.4,1.4,0,0,0,.292.518,1.208,1.208,0,0,0,.464.313,1.716,1.716,0,0,0,.621.106A3.2,3.2,0,0,0,17.7-5.27a2.789,2.789,0,0,0,.485-.121v.731a3.521,3.521,0,0,1-.5.109,3.711,3.711,0,0,1-.551.04,2.644,2.644,0,0,1-.98-.168,1.9,1.9,0,0,1-.706-.474,1.993,1.993,0,0,1-.426-.734,2.968,2.968,0,0,1-.143-.944,3.069,3.069,0,0,1,.152-.983,2.318,2.318,0,0,1,.439-.786,2,2,0,0,1,.718-.523,2.429,2.429,0,0,1,.975-.194,3.345,3.345,0,0,1,.528.04,2.445,2.445,0,0,1,.449.113v.72a3.034,3.034,0,0,0-.488-.121A2.923,2.923,0,0,0,17.213-8.6Zm5.039,1.686a2.5,2.5,0,0,0-.1-.739,1.539,1.539,0,0,0-.272-.528,1.094,1.094,0,0,0-.413-.315,1.3,1.3,0,0,0-.525-.1,1.3,1.3,0,0,0-.525.1,1.094,1.094,0,0,0-.413.315,1.54,1.54,0,0,0-.272.528,2.5,2.5,0,0,0-.1.739,2.5,2.5,0,0,0,.1.739,1.52,1.52,0,0,0,.272.526,1.118,1.118,0,0,0,.413.315,1.285,1.285,0,0,0,.525.106,1.285,1.285,0,0,0,.525-.106,1.118,1.118,0,0,0,.413-.315,1.52,1.52,0,0,0,.272-.526A2.5,2.5,0,0,0,22.252-6.914Zm.829,0a3.146,3.146,0,0,1-.143.971,2.177,2.177,0,0,1-.416.76,1.875,1.875,0,0,1-.672.5,2.215,2.215,0,0,1-.906.177,2.215,2.215,0,0,1-.906-.177,1.875,1.875,0,0,1-.672-.5,2.177,2.177,0,0,1-.416-.76,3.146,3.146,0,0,1-.143-.971,3.146,3.146,0,0,1,.143-.971,2.177,2.177,0,0,1,.416-.76,1.875,1.875,0,0,1,.672-.5,2.215,2.215,0,0,1,.906-.177,2.215,2.215,0,0,1,.906.177,1.875,1.875,0,0,1,.672.5,2.178,2.178,0,0,1,.416.76A3.146,3.146,0,0,1,23.082-6.914Zm3.137-.163q.472.71.767,1.26h.02q-.039-.9-.039-1.316v-2.1h.8V-4.6h-.843L25.5-6.731q-.377-.554-.78-1.285H24.7q.039.852.039,1.319v2.1h-.8V-9.231h.843Zm4.885,0q.472.71.767,1.26h.02q-.039-.9-.039-1.316v-2.1h.8V-4.6h-.843L30.382-6.731q-.377-.554-.78-1.285h-.02q.039.852.039,1.319v2.1h-.8V-9.231h.843Zm3.4,1.769h2.157v.71H33.7V-9.231h2.842v.71H34.507v1.2h1.751v.71H34.507ZM39.65-8.6a1.571,1.571,0,0,0-.6.114,1.308,1.308,0,0,0-.475.332,1.542,1.542,0,0,0-.31.538,2.222,2.222,0,0,0-.111.732,2.307,2.307,0,0,0,.1.718,1.4,1.4,0,0,0,.292.518,1.208,1.208,0,0,0,.464.313,1.716,1.716,0,0,0,.621.106,3.2,3.2,0,0,0,.508-.042,2.79,2.79,0,0,0,.485-.121v.731a3.521,3.521,0,0,1-.5.109,3.711,3.711,0,0,1-.551.04,2.644,2.644,0,0,1-.98-.168,1.9,1.9,0,0,1-.706-.474,1.993,1.993,0,0,1-.426-.734,2.968,2.968,0,0,1-.143-.944,3.069,3.069,0,0,1,.152-.983,2.318,2.318,0,0,1,.439-.786,2,2,0,0,1,.718-.523,2.429,2.429,0,0,1,.975-.194,3.344,3.344,0,0,1,.528.04,2.445,2.445,0,0,1,.449.113v.72a3.033,3.033,0,0,0-.488-.121A2.923,2.923,0,0,0,39.65-8.6Zm3.583,4h-.8V-8.521H41.014v-.71h3.632v.71H43.233Z" transform="translate(151.225 369.511)" fill="#6c6c6c"/>
    <path id="Path_331" data-name="Path 331" d="M49.87-27.143h-3.9V-29.9h7.082v9.078q-.39.148-.994.309t-1.351.289q-.747.128-1.54.208a15.519,15.519,0,0,1-1.572.081,11.67,11.67,0,0,1-4.087-.652A7.867,7.867,0,0,1,40.6-22.422a7.561,7.561,0,0,1-1.741-2.817,10.76,10.76,0,0,1-.578-3.611,11.39,11.39,0,0,1,.305-2.669,9.529,9.529,0,0,1,.9-2.353,9.031,9.031,0,0,1,1.436-1.957,8.566,8.566,0,0,1,1.93-1.493,9.524,9.524,0,0,1,2.378-.948A11.207,11.207,0,0,1,48-38.6a15.329,15.329,0,0,1,2.5.195,10.524,10.524,0,0,1,1.936.477v2.8a13.814,13.814,0,0,0-2.047-.511,12.479,12.479,0,0,0-2.086-.175,7.887,7.887,0,0,0-2.651.437,5.969,5.969,0,0,0-2.138,1.291,6.043,6.043,0,0,0-1.423,2.1,7.487,7.487,0,0,0-.52,2.891,6.521,6.521,0,0,0,1.611,4.781,6.145,6.145,0,0,0,4.535,1.594,10.989,10.989,0,0,0,1.131-.061,9.846,9.846,0,0,0,1.027-.155Z" transform="translate(108.649 374.425)" fill="#178097"/>
    <path id="Path_332" data-name="Path 332" d="M76.807-19.873v-18.02h2.86v18.02Z" transform="translate(88.16 374.04)" fill="#178097"/>
    <path id="Path_333" data-name="Path 333" d="M95.155-37.893v15.259h8.173v2.761H91.956v-18.02Z" transform="translate(79.134 374.04)" fill="#178097"/>
    <path id="Path_334" data-name="Path 334" d="M124.68-22.634h8.605v2.761H121.476v-18.02h11.338v2.761H124.68v4.66h6.984v2.761H124.68Z" transform="translate(63.039 374.04)" fill="#178097"/>
    <path id="Path_337" data-name="Path 337" d="M17.863,28.637,11.768,13.427H5.15L3.429,18.02H0L6.975,0H9.917l8.677,22.636c.749-1.022,2.038-2.691,2.475-2.691H69.464l-.913,1.826-46.393.047c-.893,0-4.271,6.818-4.3,6.819ZM6.788,9.063l-.6,1.6h4.543l-.6-1.6Q9.415,7.147,8.485,4.337H8.433Q7.511,7.164,6.788,9.063Z" transform="translate(129.84 336.148)" stroke="rgba(0,0,0,0)" stroke-width="1" fill="url(#linear-gradient)"/>
    <path id="Union_6" data-name="Union 6" d="M5.517,17.805a1.826,1.826,0,1,1,1.826,1.826A1.826,1.826,0,0,1,5.517,17.805Zm1.826-3.132-2.6-4.609a7.338,7.338,0,0,1,5.207,0l-2.6,4.609h0ZM3.732,8.282h0L2.393,5.912a14.215,14.215,0,0,1,9.9,0l-1.338,2.37a11.5,11.5,0,0,0-7.222,0ZM1.578,4.469h0L0,1.675c.255-.123.513-.24.768-.347a16.946,16.946,0,0,1,13.15,0c.258.109.516.226.768.347L13.108,4.468a13.691,13.691,0,0,0-11.529,0Z" transform="translate(118 335)" fill="url(#linear-gradient-2)"/>
  </g>
</svg>
