<svg xmlns="http://www.w3.org/2000/svg" width="60" height="60" viewBox="0 0 60 60">
  <g id="doctor_1_" data-name="doctor (1)" transform="translate(-0.002)">
    <circle id="Ellipse_5" data-name="Ellipse 5" cx="30" cy="30" r="30" transform="translate(0.002 0)" fill="#efefef"/>
    <path id="Path_61" data-name="Path 61" d="M219.8,249.429h8.362l.046.572-4.086,6.195-4.39-6.256.068-.51Z" transform="translate(-193.981 -220.199)" fill="#b3b3b3"/>
    <path id="Path_62" data-name="Path 62" d="M175.571,234.8l-.072,3.494-5.929,3.242v11.883h19.959V241.532l-5.51-3.425-.3-3.494-8.146.182h0Z" transform="translate(-149.697 -207.12)" fill="#f0ba7d"/>
    <path id="Path_63" data-name="Path 63" d="M185.068,82.954a.908.908,0,0,0-1.253-.377c-.913.37.041,4.061.39,4.576s.91.188,1.114.167c.291,2.2.317,3.717,1.2,4.645a27.338,27.338,0,0,0,3.75,3.293,5.61,5.61,0,0,0,3.336,0,27.309,27.309,0,0,0,3.75-3.293c.881-.928.907-2.444,1.2-4.645.2.021.766.347,1.114-.167s1.3-4.206.39-4.576a.907.907,0,0,0-1.253.377,7.915,7.915,0,0,0-.7-5.751c-1.1-1.955-3.606-2.97-6.166-3.044-2.56.074-5.067,1.089-6.166,3.044a7.915,7.915,0,0,0-.7,5.751Z" transform="translate(-161.934 -65.468)" fill="#fed298"/>
    <path id="Path_64" data-name="Path 64" d="M151.492,262.775l1.42-.559,1.144-1.028,4.04,3.064H159.1l4.041-3.068,2.563,1.591,4.454,7.572-3.528,19.14a30.177,30.177,0,0,1-14.64.359l-6.323-18.893,5.822-8.177Z" transform="translate(-128.597 -230.576)" fill="#15bdb2"/>
    <g id="Group_36" data-name="Group 36" transform="translate(24.188 29.23)">
      <path id="Path_65" data-name="Path 65" d="M265.6,251.44l-1.631-2.011-3.678,4.445,3.157,3.507Z" transform="translate(-253.973 -249.429)" fill="#21d0c3"/>
      <path id="Path_66" data-name="Path 66" d="M206.384,251.4l1.633-1.976,3.678,4.445-3.282,3.471Z" transform="translate(-206.384 -249.429)" fill="#21d0c3"/>
    </g>
    <path id="Path_67" data-name="Path 67" d="M94.94,266.289,84.13,269.8a1.22,1.22,0,0,0-.805.97l-3.179,16.108a30.068,30.068,0,0,0,7.244,5.064l1.58-5.157a.127.127,0,0,1,.248.03l.228,6.057a29.9,29.9,0,0,0,11.309,2.207v-2.011L94.94,266.289Z" transform="translate(-70.752 -235.083)" fill="#fff"/>
    <g id="Group_37" data-name="Group 37" transform="translate(19.67 31.206)">
      <path id="Path_68" data-name="Path 68" d="M172.349,266.289l-1.238.38-3.28,5.6,4.141.13-2.542,1.447,8.734,19.229-5.814-26.783Z" transform="translate(-167.831 -266.289)" fill="#eef3f7"/>
      <path id="Path_69" data-name="Path 69" d="M261.811,266.591l10.813,3.48a1.217,1.217,0,0,1,.8.97l3.179,16.109a30.08,30.08,0,0,1-7.244,5.064l-1.581-5.158a.126.126,0,0,0-.247.03l-.228,6.057A29.9,29.9,0,0,1,256,295.35h0v-2.011l5.811-26.747Z" transform="translate(-245.668 -266.556)" fill="#eef3f7"/>
    </g>
    <path id="Path_70" data-name="Path 70" d="M261.811,266.591l.687.209,3.831,5.768-4.141.13,2.542,1.448L256,293.339l5.811-26.747h0Z" transform="translate(-225.998 -235.35)" fill="#fff"/>
    <path id="Path_71" data-name="Path 71" d="M261.482,493.762a.658.658,0,1,0,.66.658A.659.659,0,0,0,261.482,493.762Z" transform="translate(-230.255 -435.899)" fill="#d9dada"/>
    <path id="Path_72" data-name="Path 72" d="M201.743,68.929l.636-.022.2-.726.6-.6c.4-2.98.512-7.618-2.445-7.484,0,0-.267-3.382-5.6-2.719s-7.746,4.107-7.459,6.981a14.312,14.312,0,0,1,.171,3.222l.6.6.09.826.523-.033a13.3,13.3,0,0,1,.328-1.591,5.384,5.384,0,0,0,.113-1.47s6.3.4,8-1.765c1.052-1.338,3.467-3.656,3.589-.446.036.952-.318,2.379.359,3.417a1.88,1.88,0,0,1,.287,1.81h0Z" transform="translate(-165.662 -50.58)" fill="#666"/>
    <path id="Path_73" data-name="Path 73" d="M243.384,311.675l1.7-7.84L243.93,288.38l.631-.269-.674-.749H242.88l-.691.732.649.287-1.129,15.58,1.675,7.715Z" transform="translate(-213.382 -253.687)" fill="#0f7986"/>
    <path id="Path_74" data-name="Path 74" d="M261.423,493.762a.6.6,0,1,0,.6.6A.6.6,0,0,0,261.423,493.762Z" transform="translate(-230.254 -435.899)" fill="#fff"/>
    <path id="Path_75" data-name="Path 75" d="M332.943,376.888a2.151,2.151,0,1,1,2.486-1.754,2.151,2.151,0,0,1-2.486,1.754Z" transform="translate(-292.348 -328.95)" fill="#fefefe"/>
    <path id="Path_76" data-name="Path 76" d="M333.909,377.707a2.026,2.026,0,1,1,2.341-1.652,2.026,2.026,0,0,1-2.341,1.652Z" transform="translate(-293.293 -329.893)" fill="#0f7986"/>
    <path id="Path_77" data-name="Path 77" d="M340.881,383.636a1.121,1.121,0,1,1,1.3-.914,1.121,1.121,0,0,1-1.3.914Z" transform="translate(-300.111 -336.714)" fill="#ebecec"/>
    <path id="Path_78" data-name="Path 78" d="M349.015,371.021l.493.085.265-1.534-.492-.085Z" transform="translate(-308.113 -326.187)" fill="#fefefe"/>
    <path id="Path_79" data-name="Path 79" d="M136.949,331.637l.923-.183a1.457,1.457,0,0,0,1.143-1.709l-1.086-5.469a4.192,4.192,0,0,0-3.869-3.349,6.96,6.96,0,0,0-4.2.833,4.186,4.186,0,0,0-2.288,4.572l1.086,5.469a1.451,1.451,0,0,0,.619.924h0a1.448,1.448,0,0,0,1.09.219l.923-.183-.076-.38-.923.183a1.064,1.064,0,0,1-.8-.16h0a1.065,1.065,0,0,1-.454-.677l-1.086-5.469a3.817,3.817,0,0,1,2.1-4.161,6.564,6.564,0,0,1,3.962-.786,3.823,3.823,0,0,1,3.536,3.042l1.086,5.469a1.069,1.069,0,0,1-.838,1.253l-.923.183.075.38h0Z" transform="translate(-112.544 -283.274)" fill="#21d0c3"/>
    <path id="Path_80" data-name="Path 80" d="M137.249,324.117l-.166-.835a4.316,4.316,0,0,0-3.98-3.452,7.088,7.088,0,0,0-4.279.848,4.309,4.309,0,0,0-2.351,4.71l.166.835.634-.126-.166-.835a3.7,3.7,0,0,1,2.035-4.024,6.444,6.444,0,0,1,3.883-.77,3.7,3.7,0,0,1,3.426,2.939l.166.835.634-.126Z" transform="translate(-111.571 -282.304)" fill="#4d4d4d"/>
    <g id="Group_38" data-name="Group 38" transform="translate(17.908 47.747)">
      <path id="Path_81" data-name="Path 81" d="M152.9,416.7l.494-.1a.542.542,0,1,0-.107-.538l-.493.1.107.538Z" transform="translate(-152.797 -414.73)" fill="#076673"/>
      <path id="Path_82" data-name="Path 82" d="M199.929,408.06l-.493.1a.542.542,0,1,1-.107-.538l.493-.1Z" transform="translate(-193.039 -407.438)" fill="#076673"/>
    </g>
    <path id="Path_83" data-name="Path 83" d="M160.4,313.385l-.188-.949-.374.074-.374.074.19.958q.214-.062.433-.106C160.192,313.416,160.3,313.4,160.4,313.385Z" transform="translate(-140.776 -275.822)" fill="#666"/>
    <g id="Group_39" data-name="Group 39" transform="translate(18.622 47.892)">
      <path id="Path_84" data-name="Path 84" d="M159.09,417.28a.164.164,0,1,0-.193-.129.164.164,0,0,0,.193.129Z" transform="translate(-158.894 -415.985)" fill="#0f7986"/>
      <path id="Path_85" data-name="Path 85" d="M200.741,409a.164.164,0,1,0-.193-.129A.164.164,0,0,0,200.741,409Z" transform="translate(-195.664 -408.673)" fill="#0f7986"/>
    </g>
    <path id="Path_86" data-name="Path 86" d="M340.75,384.459a1.06,1.06,0,1,1,1.225-.865,1.06,1.06,0,0,1-1.225.865Z" transform="translate(-300.04 -337.547)" fill="#fefefe"/>
    <g id="Group_40" data-name="Group 40" transform="translate(18.665 30.94)">
      <path id="Path_87" data-name="Path 87" d="M164.784,264.571c-.017,0-5.843.049-4.859,5.146l-.542.1c-1.109-5.747,5.376-5.8,5.394-5.8Z" transform="translate(-159.256 -264.021)" fill="#4d4d4d"/>
      <path id="Path_88" data-name="Path 88" d="M305.549,264.243a5.515,5.515,0,0,1,4.2,2.005c1.384,1.684,2.354,4.776,1.629,10.445l-.546-.069c.7-5.487-.205-8.441-1.508-10.026a4.974,4.974,0,0,0-3.79-1.8l.013-.55Z" transform="translate(-288.394 -264.217)" fill="#4d4d4d"/>
    </g>
  </g>
</svg>
