<svg xmlns="http://www.w3.org/2000/svg" xmlns:xlink="http://www.w3.org/1999/xlink" width="114.049" height="140.287" viewBox="0 0 114.049 140.287">
  <defs>
    <linearGradient id="linear-gradient" x1="-552.957" y1="-132.519" x2="-552.226" y2="-126.372" gradientUnits="objectBoundingBox">
      <stop offset="0" stop-color="#ffc444"/>
      <stop offset="0.996" stop-color="#f36f56"/>
    </linearGradient>
    <linearGradient id="linear-gradient-2" x1="132.094" y1="0.5" x2="133.094" y2="0.5" gradientUnits="objectBoundingBox">
      <stop offset="0" stop-color="#80e8f9"/>
      <stop offset="1" stop-color="#61afd7"/>
    </linearGradient>
    <linearGradient id="linear-gradient-3" x1="-531.135" y1="28.323" x2="-530.139" y2="28.323" gradientUnits="objectBoundingBox">
      <stop offset="0" stop-color="#444b8c"/>
      <stop offset="0.996" stop-color="#26264f"/>
    </linearGradient>
    <linearGradient id="linear-gradient-4" x1="-1441.211" y1="109.512" x2="-1439.987" y2="107.736" xlink:href="#linear-gradient"/>
    <linearGradient id="linear-gradient-5" x1="-444.835" y1="294.132" x2="-443.872" y2="294.132" xlink:href="#linear-gradient-3"/>
    <linearGradient id="linear-gradient-6" x1="-1141.834" y1="180.183" x2="-1140.822" y2="178.305" xlink:href="#linear-gradient"/>
    <linearGradient id="linear-gradient-7" x1="106.194" y1="0.836" x2="105.393" y2="0.171" gradientUnits="objectBoundingBox">
      <stop offset="0" stop-color="#80d0f9"/>
      <stop offset="1" stop-color="#61b3d7"/>
    </linearGradient>
    <linearGradient id="linear-gradient-9" x1="88.675" y1="0.5" x2="89.675" y2="0.5" gradientUnits="objectBoundingBox">
      <stop offset="0" stop-color="#80d8f9"/>
      <stop offset="1" stop-color="#61b3d7"/>
    </linearGradient>
    <linearGradient id="linear-gradient-12" x1="175.502" y1="-113.648" x2="175.558" y2="-115.421" xlink:href="#linear-gradient"/>
    <linearGradient id="linear-gradient-13" x1="-485.62" y1="-2.802" x2="-486.298" y2="-4.344" gradientUnits="objectBoundingBox">
      <stop offset="0" stop-color="#311944"/>
      <stop offset="1" stop-color="#6b3976"/>
    </linearGradient>
    <linearGradient id="linear-gradient-14" x1="351.749" y1="24.271" x2="351.713" y2="27.434" xlink:href="#linear-gradient"/>
    <linearGradient id="linear-gradient-15" x1="-562.441" y1="-4.498" x2="-563.226" y2="-6.688" xlink:href="#linear-gradient-13"/>
    <linearGradient id="linear-gradient-16" x1="-2551.282" y1="-72.967" x2="-2551.097" y2="-68.395" gradientUnits="objectBoundingBox">
      <stop offset="0" stop-color="#ffc444"/>
      <stop offset="1" stop-color="#f36f56"/>
    </linearGradient>
    <linearGradient id="linear-gradient-17" x1="-222.9" y1="2.309" x2="-222.803" y2="1.469" gradientUnits="objectBoundingBox">
      <stop offset="0" stop-color="#ff9085"/>
      <stop offset="1" stop-color="#fb6fbb"/>
    </linearGradient>
    <linearGradient id="linear-gradient-18" x1="-598.757" y1="0.266" x2="-597.833" y2="6.348" xlink:href="#linear-gradient"/>
    <linearGradient id="linear-gradient-19" x1="-356.382" y1="2.358" x2="-356.227" y2="1.492" xlink:href="#linear-gradient-17"/>
  </defs>
  <g id="Group_412" data-name="Group 412" transform="translate(-298.387 -52.273)">
    <path id="Path_191" data-name="Path 191" d="M1430.687,997.981c44.313,7.526,58.765,4.576,59.524,9.489,1.14,7.382-30.459,20.6-61.249,22.429-8.25.49-45.313,2.688-51.761-13.8-2.378-6.084-.4-14.229,4.313-18.978C1389.624,988.95,1403.346,993.338,1430.687,997.981Z" transform="translate(-1077.804 -837.709)" fill="#61a8d7" opacity="0.19" style="mix-blend-mode: multiply;isolation: isolate"/>
    <g id="Group_75" data-name="Group 75" transform="translate(301.335 52.273)">
      <path id="Path_108" data-name="Path 108" d="M1317.727,700.3s-.6-2.365-1.606-2.989-2.421-1.292-2.747-1.566-.7.546.232,1.172l.936.628a.923.923,0,0,1-.038.4,1.411,1.411,0,0,1-1.28.806c-2.4.5-3.341.528-3.707.421-.055-.016-.264-.084-.352.009-.141.148.113.621.222.786.65.993,2.906,1.425,4.595.648.617-.283.854-.588,1.3-.511.715.121,1.154,1.065,1.414,1.845Z" transform="translate(-1309.123 -668.185)" fill="url(#linear-gradient)"/>
      <path id="Path_109" data-name="Path 109" d="M1331.628,666.476l2.053-1.824a10.354,10.354,0,0,0,9.007,2.736c3.515-.744,5.542-3.63,6.841-5.473,3.9-5.535,1.567-9.6,5.767-13.356,1.167-1.044,3.454-2.309,4.95-1.923,3.564.919,5.616,11.637,2.167,20.067-.7,1.7-4.53,11.071-13.226,12.086C1342.165,679.609,1334.719,674.662,1331.628,666.476Z" transform="translate(-1324.962 -633.608)" fill="#fff"/>
      <path id="Path_110" data-name="Path 110" d="M1359.448,675.928c-6.427,5.077-5.711,14.813-9.663,15.307-1.207.151-1.141-.775-4.02-1.711-4.21-1.369-6.188.014-9.15-1.026a9.181,9.181,0,0,1-4.393-3.522l-.595.528c3.092,8.187,10.537,13.134,17.559,12.314,8.7-1.015,12.53-10.384,13.226-12.086a25.825,25.825,0,0,0,1.634-12.13A13.409,13.409,0,0,0,1359.448,675.928Z" transform="translate(-1324.962 -652.638)" opacity="0.3" fill="url(#linear-gradient-2)" style="mix-blend-mode: multiply;isolation: isolate"/>
      <path id="Path_111" data-name="Path 111" d="M1479.052,1016.4c.375.305.443,1.066.489,1.563a1.234,1.234,0,0,1,.005.412c-.181.573-1.292.633-3.033.811-2.752.281-3.571.5-3.786.088-.2-.384.286-1.012.341-1.081a2.521,2.521,0,0,1,1.36-.739c1.3-.427,2.175-.662,2.441-.732C1478.529,1016.284,1478.805,1016.205,1479.052,1016.4Z" transform="translate(-1424.235 -893.831)" fill="url(#linear-gradient-3)"/>
      <path id="Path_112" data-name="Path 112" d="M1488.017,1008.165l-.276,3.136a1.7,1.7,0,0,0,1.75.216l.708-3.082Z" transform="translate(-1434.836 -888.105)" fill="url(#linear-gradient-4)"/>
      <path id="Path_113" data-name="Path 113" d="M1395.962,1010.875a1.55,1.55,0,0,1,.16,1.86c-.384.443-.962.111-2.6.16-1.755.052-2.213.467-3.4.137-.482-.133-1.333-.456-1.316-.8.011-.242.444-.367,1.891-.851a18.67,18.67,0,0,1,2.481-.8C1394.268,1010.4,1395.368,1010.22,1395.962,1010.875Z" transform="translate(-1365.201 -889.688)" fill="url(#linear-gradient-5)"/>
      <path id="Path_114" data-name="Path 114" d="M1407.089,1002.309l-.88,2.927a1.7,1.7,0,0,0,1.729.349l1.307-2.842Z" transform="translate(-1377.453 -883.984)" fill="url(#linear-gradient-6)"/>
      <path id="Path_115" data-name="Path 115" d="M1414.99,785.841a274.243,274.243,0,0,1-8.666,64.968l3.369.906a28.568,28.568,0,0,0,8.177-12.747c1.076-3.667.717-5.552,1.4-10.063,1.087-7.182,3.289-10.945,5.565-16.737a95.287,95.287,0,0,0,5.758-23.053Z" transform="translate(-1377.534 -731.631)" fill="url(#linear-gradient-7)"/>
      <path id="Path_116" data-name="Path 116" d="M1477.339,785.886q1.031,18.77,1.681,38.23.482,14.6.714,28.828l3.441.425a40.031,40.031,0,0,0,3.588-9.261c1.225-4.911.942-7.827,1.479-12.917.6-5.708,1.478-6.952,3.029-14.154,3.148-14.615,4.722-21.922,1.21-26.467C1491.341,789.094,1487.769,785.392,1477.339,785.886Z" transform="translate(-1427.515 -731.632)" fill="url(#linear-gradient-7)"/>
      <path id="Path_117" data-name="Path 117" d="M1455.638,641.4a53.426,53.426,0,0,0-11.444-1.911c-6.876-.389-10.314-.583-12.751,1.055-5.627,3.782-1.27,12.511-3.574,34.149-.979,9.2-1.42,8.6.786,11.875,4.482,6.65,17.074,7.2,22.842,1.43,3.048-3.048,3.441-3.219,3.514-6.7C1455.3,667.571,1455.519,654.61,1455.638,641.4Z" transform="translate(-1392.131 -628.435)" fill="url(#linear-gradient-9)"/>
      <path id="Path_118" data-name="Path 118" d="M1415.3,642a20.371,20.371,0,0,1,8.771-2.222,74.226,74.226,0,0,1,4.85,18.466c.912,7.154.486,11.888,0,21.716-.309,6.209-.623,15.206-.528,26.289a15.7,15.7,0,0,1-4.48.773c-3.68.082-4.909-1.247-8.668-.879-1.64.161-2.047.476-2.6.109-1.538-1.025-.386-4.828.385-8.957,1.193-6.385-.106-5.07,1.059-15.409.966-8.572,2.3-13.376,1.059-13.869C1414.481,667.749,1413.855,642.738,1415.3,642Z" transform="translate(-1381.447 -628.828)" fill="#fff"/>
      <path id="Path_119" data-name="Path 119" d="M1418.9,683.037c-.048-6.449-3.485-7.361-3.138-12.909.348-5.587,3.911-5.895,3.787-10.7-.15-5.848-5.477-7.694-5.269-13.008a9.2,9.2,0,0,1,1.635-4.71,20.5,20.5,0,0,1,8.154-1.934,74.216,74.216,0,0,1,4.85,18.466c.912,7.154.487,11.888,0,21.716-.309,6.209-.623,15.206-.529,26.289a15.7,15.7,0,0,1-4.48.773c-3.68.082-4.909-1.247-8.668-.879-1.64.161-2.048.476-2.6.109-1.344-.9-.634-3.912.081-7.413a26.053,26.053,0,0,0,3.535-5.489A23.279,23.279,0,0,0,1418.9,683.037Z" transform="translate(-1381.447 -628.828)" opacity="0.15" fill="url(#linear-gradient-2)" style="mix-blend-mode: multiply;isolation: isolate"/>
      <path id="Path_120" data-name="Path 120" d="M1479.049,662.092a25.592,25.592,0,0,0-.674,8.09c.495,12.936.747,19.442.964,21.284,1.051,8.944,1.794,8.387,1.539,12.019-.136,1.944-.455,3.609.609,4.832,1.269,1.459,3.094.67,7.585,1.249,4.129.533,4.238,1.413,8.7,1.949,1.813.218,6.764.813,7.281-.6.277-.753-.747-1.989-1.734-2.6-1.607-1-2.976-.245-3.518-1.039-.622-.91,1.056-2.073,1.111-4.258s-1.567-2.885-2.574-5.56a12.347,12.347,0,0,1-.415-6.114c.645-6.7-2.3-12-2.886-20.878-.907-13.825,5-19.9.992-24.328-2.172-2.4-5.748-2.652-7.984-2.6-2.323,4.839-4.324,8.646-5.74,11.261A30.21,30.21,0,0,0,1479.049,662.092Z" transform="translate(-1428.206 -631.478)" fill="#fff"/>
      <g id="Group_53" data-name="Group 53" transform="translate(36.365 10.945)">
        <path id="Path_121" data-name="Path 121" d="M1437.371,655.878c.33-1.135,1.372-2.224.963-3.563a3.026,3.026,0,0,0-1.36-1.606,6.46,6.46,0,0,1-5.044-6.869,6.258,6.258,0,0,1,1.433-3.375,20.7,20.7,0,0,1,4.8-.693,74.23,74.23,0,0,1,4.849,18.466,65.039,65.039,0,0,1,.53,9.3,12.019,12.019,0,0,0-2.162-4.105C1439.973,661.732,1436.568,658.644,1437.371,655.878Z" transform="translate(-1431.898 -639.773)" fill="#fff"/>
      </g>
      <g id="Group_54" data-name="Group 54" transform="translate(50.115 12.061)" opacity="0.64" style="mix-blend-mode: multiply;isolation: isolate">
        <path id="Path_122" data-name="Path 122" d="M1479.049,662.093a30.21,30.21,0,0,1,3.256-7.286c1.417-2.615,3.417-6.422,5.74-11.261.542-.013,1.164-.007,1.824.042,3.536,4.884,3.76,7.614,2.939,9.235-.8,1.579-2.474,1.886-2.693,3.59-.342,2.666,3.536,3.577,4.488,7.181.831,3.146-1.113,6.289-2.942,9.247-3.111,5.031-5.959,5.653-5.855,8.346.109,2.8,3.221,2.853,4.489,6.283,1.986,5.378-4.187,9.245-2.334,14,1.436,3.688,5.772,2.979,8.438,7.72a11.015,11.015,0,0,1,.948,2.265c-4.037-.54-4.285-1.378-8.275-1.893-4.491-.579-6.316.211-7.585-1.249-1.064-1.224-.745-2.888-.609-4.832.255-3.632-.488-3.075-1.539-12.019-.217-1.842-.469-8.348-.964-21.285A25.589,25.589,0,0,1,1479.049,662.093Z" transform="translate(-1478.321 -643.54)" opacity="0.3" fill="url(#linear-gradient-2)" style="mix-blend-mode: multiply;isolation: isolate"/>
      </g>
      <path id="Path_123" data-name="Path 123" d="M1488.487,654.629c-1.824,1.621-3.143,2.168-3.371,3.715-.251,1.7,1.169,2.273.927,3.931-.3,2.074-2.653,2.079-3.864,4.73-.793,1.735-.1,2.424-.578,4.671a11.378,11.378,0,0,1-2.961,5.4c-.08-2.058-.168-4.347-.265-6.888a25.59,25.59,0,0,1,.674-8.09,30.21,30.21,0,0,1,3.256-7.286c1.416-2.615,3.417-6.422,5.74-11.261a14.487,14.487,0,0,1,4.758.6,5.222,5.222,0,0,1,.693,2.35C1493.625,650.062,1489.7,653.546,1488.487,654.629Z" transform="translate(-1428.206 -631.479)" fill="#fff"/>
      <g id="Group_56" data-name="Group 56" transform="translate(44.505)">
        <path id="Path_124" data-name="Path 124" d="M1466.424,614.76a23.786,23.786,0,0,0,.426,4.762,3.689,3.689,0,0,0,.65,1.862c.341.4.858.736,3.78,1.461,1.59.394,1.793.383,1.828.541.172.77-4.163,3.392-8.641,2.76-2.741-.387-5.235-1.95-5.082-2.771s2.892-.383,3.708-1.878c.568-1.04-.069-2.516-.821-3.739C1463,616.393,1465.7,616.125,1466.424,614.76Z" transform="translate(-1459.379 -611.223)" fill="url(#linear-gradient-12)"/>
        <g id="Group_55" data-name="Group 55" transform="translate(1.465)">
          <path id="Path_125" data-name="Path 125" d="M1464.819,607.162a2.883,2.883,0,0,1,.059-3.307,3.139,3.139,0,0,1,2.255-1c1.75-.2,3.96.529,4.729,2.14.455.955-.53,2.939-.684,3.3-.175.4-.491.542-.784.847-.406.423-1.041,1.1-2.079,2.22a7.171,7.171,0,0,0-.4-1.188,6.352,6.352,0,0,0-.831-1.4C1466.173,607.659,1465.433,607.977,1464.819,607.162Z" transform="translate(-1464.327 -602.82)" fill="url(#linear-gradient-13)"/>
          <path id="Path_126" data-name="Path 126" d="M1470.252,618.164a3.911,3.911,0,0,1-3.443,1.739c-2.052-.134-2.353-4.735-1.042-5.712a2.589,2.589,0,0,1,2.025-.261c.42.118.563.293,1.254.472.637.166.817.095,1.009.257.241.2.417.7.016,2.044a1.117,1.117,0,0,1,1.195-.391.7.7,0,0,1,.273.266C1471.825,617.1,1471.345,617.775,1470.252,618.164Z" transform="translate(-1464.784 -610.574)" fill="url(#linear-gradient-14)"/>
          <path id="Path_127" data-name="Path 127" d="M1469.991,615.657c-.1.074.2.443.226.965a2.511,2.511,0,0,1-2.03,2.335c-.619.061-.789-.312-1.813-.421a4.7,4.7,0,0,0-1.493.086,2.467,2.467,0,0,0,.724,2.736,2.567,2.567,0,0,0,2.25.077,2.934,2.934,0,0,0,1.682-1.234c.5-.876.009-1.4.582-2,.289-.3.668-.428,1.038-1.007a2.823,2.823,0,0,0,.208-.39C1470.835,616.25,1470.134,615.55,1469.991,615.657Z" transform="translate(-1464.627 -611.847)" fill="url(#linear-gradient-15)"/>
          <path id="Path_128" data-name="Path 128" d="M1467.3,627.068a2.5,2.5,0,0,0,1.209.189c.037,0,.078.009.083.028a.941.941,0,0,1-.927.271c-.321-.09-.571-.395-.528-.472C1467.156,627.051,1467.229,627.055,1467.3,627.068Z" transform="translate(-1466.302 -619.879)" fill="url(#linear-gradient-16)"/>
        </g>
      </g>
      <path id="Path_129" data-name="Path 129" d="M1507.25,666.19c-1.17,2.485,4.206,8.271,10.182,11.019,1.217.56,9.96,4.58,13.857.714,3.22-3.195,1.141-9.8.4-12.158-3.643-11.579-13.952-18.069-18.64-20.193-3.5,8.749-2.317,13.248-1.506,14.465a46.6,46.6,0,0,0,5.723,6.3c1.767,1.655,2.867,2.461,2.719,2.719-.184.321-2.255-.285-10.3-4.2A3.129,3.129,0,0,0,1507.25,666.19Z" transform="translate(-1448.453 -632.909)" fill="#fff"/>
      <path id="Path_130" data-name="Path 130" d="M1438.583,666.146l14.237,1.333a.727.727,0,0,1,.632.524l5.313,18.552a.728.728,0,0,1-.764.926l-14.354-1.267a.727.727,0,0,1-.637-.53l-5.2-18.618A.728.728,0,0,1,1438.583,666.146Z" transform="translate(-1399.678 -647.387)" fill="url(#linear-gradient-17)"/>
      <path id="Path_131" data-name="Path 131" d="M1495.955,699.369s-4.9-5.017-6.9-5.758-.229,4.551.94,5.3a5.478,5.478,0,0,0,2.537,1.145l.912.115,1.2.638S1496.183,700.624,1495.955,699.369Z" transform="translate(-1435.126 -666.67)" fill="url(#linear-gradient-18)"/>
      <path id="Path_132" data-name="Path 132" d="M1448.059,682.192c-.537-2.932,1.118-5.207-.468-7.955-1.631-2.827-4.495-2.35-6.552-4.68a6.765,6.765,0,0,1-1.531-3.324l-.925-.087a.728.728,0,0,0-.769.921l5.2,18.618a.727.727,0,0,0,.637.53l7.289.643A8.263,8.263,0,0,1,1448.059,682.192Z" transform="translate(-1399.678 -647.387)" opacity="0.3" fill="url(#linear-gradient-19)" style="mix-blend-mode: multiply;isolation: isolate"/>
    </g>
  </g>
</svg>
