<svg xmlns="http://www.w3.org/2000/svg" width="11" height="11" viewBox="0 0 11 11">
  <g id="Group_362" data-name="Group 362" transform="translate(-7142 764)">
    <g id="calendar_2_" data-name="calendar (2)" transform="translate(7142 -764)">
      <g id="Group_361" data-name="Group 361">
        <g id="Group_360" data-name="Group 360">
          <circle id="Ellipse_38" data-name="Ellipse 38" cx="0.43" cy="0.43" r="0.43" transform="translate(7.863 4.082)" fill="#fff"/>
          <path id="Path_356" data-name="Path 356" d="M9.281.859H8.723V.43a.43.43,0,0,0-.859,0v.43H5.908V.43a.43.43,0,0,0-.859,0v.43H3.115V.43a.43.43,0,0,0-.859,0v.43H1.719A1.721,1.721,0,0,0,0,2.578v6.7A1.721,1.721,0,0,0,1.719,11H5.006a.43.43,0,0,0,0-.859H1.719a.86.86,0,0,1-.859-.859v-6.7a.86.86,0,0,1,.859-.859h.537v.43a.43.43,0,0,0,.859,0v-.43H5.049v.43a.43.43,0,0,0,.859,0v-.43H7.863v.43a.43.43,0,0,0,.859,0v-.43h.559a.86.86,0,0,1,.859.859V5.027a.43.43,0,0,0,.859,0V2.578A1.721,1.721,0,0,0,9.281.859Z" fill="#fff"/>
          <path id="Path_357" data-name="Path 357" d="M272.6,270a2.6,2.6,0,1,0,2.6,2.6A2.6,2.6,0,0,0,272.6,270Zm0,4.34a1.74,1.74,0,1,1,1.74-1.74A1.742,1.742,0,0,1,272.6,274.34Z" transform="translate(-264.199 -264.199)" fill="#fff"/>
          <path id="Path_358" data-name="Path 358" d="M372.053,330.881h-.193v-.451a.43.43,0,0,0-.859,0v.881a.43.43,0,0,0,.43.43h.623a.43.43,0,0,0,0-.859Z" transform="translate(-363.029 -322.91)" fill="#fff"/>
          <circle id="Ellipse_39" data-name="Ellipse 39" cx="0.43" cy="0.43" r="0.43" transform="translate(5.994 4.082)" fill="#fff"/>
          <circle id="Ellipse_40" data-name="Ellipse 40" cx="0.43" cy="0.43" r="0.43" transform="translate(4.125 5.951)" fill="#fff"/>
          <circle id="Ellipse_41" data-name="Ellipse 41" cx="0.43" cy="0.43" r="0.43" transform="translate(2.256 4.082)" fill="#fff"/>
          <circle id="Ellipse_42" data-name="Ellipse 42" cx="0.43" cy="0.43" r="0.43" transform="translate(2.256 5.951)" fill="#fff"/>
          <circle id="Ellipse_43" data-name="Ellipse 43" cx="0.43" cy="0.43" r="0.43" transform="translate(2.256 7.82)" fill="#fff"/>
          <circle id="Ellipse_44" data-name="Ellipse 44" cx="0.43" cy="0.43" r="0.43" transform="translate(4.125 7.82)" fill="#fff"/>
          <circle id="Ellipse_45" data-name="Ellipse 45" cx="0.43" cy="0.43" r="0.43" transform="translate(4.125 4.082)" fill="#fff"/>
        </g>
      </g>
    </g>
  </g>
</svg>
