<svg id="_24-hours" data-name="24-hours" xmlns="http://www.w3.org/2000/svg" width="24" height="24" viewBox="0 0 24 24">
  <g id="Group_87" data-name="Group 87">
    <g id="Group_86" data-name="Group 86">
      <path id="Path_214" data-name="Path 214" d="M327.6,280.006h-1.2v-7.6a.4.4,0,0,0-.728-.229l-5.6,8a.4.4,0,0,0,.328.629h5.2v1.2a.4.4,0,1,0,.8,0v-1.2h1.2a.4.4,0,0,0,0-.8Zm-2,0h-4.432l4.432-6.331Z" transform="translate(-304.003 -258.406)" fill="#2d4b58"/>
      <path id="Path_215" data-name="Path 215" d="M214,281.587h-4.736l4.4-5.184a.428.428,0,0,0,.028-.037,2.782,2.782,0,0,0-.628-3.778,3.2,3.2,0,0,0-5.067,2.6.4.4,0,1,0,.8,0,2.4,2.4,0,0,1,3.8-1.95,1.975,1.975,0,0,1,.44,2.666l-4.945,5.825a.4.4,0,0,0,.3.659H214a.4.4,0,0,0,0-.8Z" transform="translate(-197.6 -258.387)" fill="#2d4b58"/>
      <path id="Path_216" data-name="Path 216" d="M10.809,21.208a.4.4,0,0,0-.385-.415h0A9.988,9.988,0,0,1,.814,11.2H2.4a.4.4,0,0,0,0-.8H.814A9.976,9.976,0,0,1,10.4.814V2a.4.4,0,1,0,.8,0V.814a9.983,9.983,0,0,1,9.581,9.4l-1.56-1.56a.4.4,0,0,0-.566.566l2.233,2.233a.393.393,0,0,0,.158.115l.048.012a.4.4,0,0,0,.085.02H21.2a.385.385,0,0,0,.09-.018.376.376,0,0,0,.049-.009.394.394,0,0,0,.144-.09L23.747,9.22a.4.4,0,0,0-.566-.566l-1.6,1.6A10.783,10.783,0,0,0,10.828.006C10.818.005,10.81,0,10.8,0s-.018.005-.028.006A10.781,10.781,0,0,0,.006,10.772c0,.01-.006.018-.006.028s.005.018.006.028A10.79,10.79,0,0,0,10.394,21.592h.015A.4.4,0,0,0,10.809,21.208Z" fill="#2d4b58"/>
      <path id="Path_217" data-name="Path 217" d="M160.128,106.295a.4.4,0,0,0-.566,0l-4.3,4.3a1.253,1.253,0,0,0-1.02,0l-2.035-2.035a.4.4,0,0,0-.566.566l2.031,2.031a1.2,1.2,0,1,0,2.16,0l4.294-4.294A.4.4,0,0,0,160.128,106.295Zm-5.091,5.657h0a.409.409,0,0,1-.566,0,.4.4,0,1,1,.566,0Z" transform="translate(-143.954 -100.869)" fill="#2d4b58"/>
    </g>
  </g>
</svg>
