<svg xmlns="http://www.w3.org/2000/svg" xmlns:xlink="http://www.w3.org/1999/xlink" width="104.294" height="103.585" viewBox="0 0 104.294 103.585">
  <defs>
    <linearGradient id="linear-gradient" x1="132.094" y1="0.5" x2="133.094" y2="0.5" gradientUnits="objectBoundingBox">
      <stop offset="0" stop-color="#80e8f9"/>
      <stop offset="1" stop-color="#61afd7"/>
    </linearGradient>
    <linearGradient id="linear-gradient-2" x1="93.924" y1="0.5" x2="94.924" y2="0.5" gradientUnits="objectBoundingBox">
      <stop offset="0" stop-color="#aa80f9"/>
      <stop offset="0.996" stop-color="#6165d7"/>
    </linearGradient>
    <linearGradient id="linear-gradient-3" x1="46.951" y1="0.5" x2="47.951" y2="0.5" gradientUnits="objectBoundingBox">
      <stop offset="0" stop-color="#446a8c"/>
      <stop offset="1" stop-color="#26354f"/>
    </linearGradient>
    <linearGradient id="linear-gradient-4" x1="113.844" y1="0.856" x2="115.125" y2="-0.162" gradientUnits="objectBoundingBox">
      <stop offset="0" stop-color="#44668c"/>
      <stop offset="1" stop-color="#26364f"/>
    </linearGradient>
    <linearGradient id="linear-gradient-8" x1="418.176" y1="81.59" x2="419.156" y2="81.59" gradientUnits="objectBoundingBox">
      <stop offset="0" stop-color="#444b8c"/>
      <stop offset="0.996" stop-color="#26264f"/>
    </linearGradient>
    <linearGradient id="linear-gradient-9" x1="25.77" y1="0.602" x2="26.658" y2="0.39" gradientUnits="objectBoundingBox">
      <stop offset="0.004" stop-color="#26264f"/>
      <stop offset="1" stop-color="#444b8c"/>
    </linearGradient>
    <linearGradient id="linear-gradient-10" x1="26.386" y1="0.6" x2="27.275" y2="0.391" xlink:href="#linear-gradient-8"/>
    <linearGradient id="linear-gradient-11" x1="28.915" y1="0.5" x2="29.915" y2="0.5" gradientUnits="objectBoundingBox">
      <stop offset="0" stop-color="#ff9085"/>
      <stop offset="1" stop-color="#fb6fbb"/>
    </linearGradient>
  </defs>
  <g id="Group_411" data-name="Group 411" transform="translate(-194.435 -105.474)">
    <path id="Union_3" data-name="Union 3" d="M-6549.812,986.476a14.077,14.077,0,0,1-12.6-14.831c-13.234-.456-25.948-.6-33.192-.526a54.042,54.042,0,0,1-12.6-1.062c-3.144-.77-4.757-1.905-4.793-3.374-.033-1.3,1.157-2.357,3.537-3.137a34.381,34.381,0,0,1,8.829-1.3c3-.123,4.833-2.49,5.827-4.4a2.168,2.168,0,0,1-.785-2.023l.576-3.884a8.236,8.236,0,0,1-2.929-1.91l-2.051-2.086a2.083,2.083,0,0,1-.6-1.436l-5.525-4.953a20.186,20.186,0,0,1-5.595-8.4,21.547,21.547,0,0,1-.9-10.2,1.8,1.8,0,0,1,.853-1.258l3.3-22.291a10.935,10.935,0,0,1,9.087-8.851,2.845,2.845,0,0,1,2.5-1.8l1.52-.091c.037,0,.073,0,.113,0,1.3-.022,4.191.964,4.171,2.212l-.006.45c.194,1.922-2.719,2.294-4.007,2.317l-1.772.06a2.388,2.388,0,0,1-.31-.015l-.442.015a1.877,1.877,0,0,1-1.874-1.218,7.444,7.444,0,0,0-1.449.506l0-.261a8.657,8.657,0,0,0-5.711,6.659l-3.316,22.367a1.406,1.406,0,0,1,.478,1.311,17.767,17.767,0,0,0,5.648,16.042l5.572,4.941a2.225,2.225,0,0,1,1.734.632l2.078,2.083a3.838,3.838,0,0,0,1.127.783,2.539,2.539,0,0,1,1.388-.289,2.282,2.282,0,0,1,1.338.559,4.628,4.628,0,0,0,1.535-.644l2.644-1.718a2.622,2.622,0,0,1,1.977-.373l7.407-4.194a22.9,22.9,0,0,0,11.523-16.2,1.917,1.917,0,0,1,.992-1.366l3.6-24.276a6.356,6.356,0,0,0-5.918-7.336,3.135,3.135,0,0,1-2.567,1.489l-1,.065c-1.386.025-5.074-1-4.883-2.3l.069-.461c.191-1.295,3.521-2.372,4.908-2.408l1.678-.1a2.044,2.044,0,0,1,2.224,1.776c4.969.458,8.362,4.393,7.64,9.261l-3.611,24.364a1.489,1.489,0,0,1,.584,1.431,25.063,25.063,0,0,1-4.482,10.864,28.125,28.125,0,0,1-9.044,8.048l-7.455,4.176a2.526,2.526,0,0,1-1.049,1.338l-2.67,1.711a9.862,9.862,0,0,1-3.794,1.446l-.573,3.864a2.477,2.477,0,0,1-2.037,2.036,14.671,14.671,0,0,1-.853,1.532,8.438,8.438,0,0,1-6.8,4.3,33.165,33.165,0,0,0-8.177,1.167c-1.91.6-2.35,1.2-2.363,1.323.02.168.662.933,3.462,1.6a51.291,51.291,0,0,0,12.009.979c7.285-.071,20.089.073,33.417.537.011-.062.021-.123.033-.185a16.934,16.934,0,0,1,4.986-9.137,17.609,17.609,0,0,1,13.568-5.092,14.273,14.273,0,0,1,13.419,16.347,98.49,98.49,0,0,1,11.727,1.735c2.994.709,4.594,1.882,4.758,3.49s-1.22,3.183-3.9,4.425a25.143,25.143,0,0,1-10.309,2.018,30.361,30.361,0,0,1-3.737-.229,29.263,29.263,0,0,1-4.381-.886,17.7,17.7,0,0,1-10.893,4.315q-.5.032-1.009.031A15.747,15.747,0,0,1-6549.812,986.476Zm31.4-6.866c2-.931,2.856-1.952,2.8-2.506-.05-.5-.944-1.273-3.3-1.829a97.522,97.522,0,0,0-11.656-1.72,16.947,16.947,0,0,1-3.869,7.122C-6528.3,982.161-6522.221,981.376-6518.414,979.61Z" transform="translate(6812.435 -777.526)" opacity="0.3" fill="url(#linear-gradient)" style="mix-blend-mode: multiply;isolation: isolate"/>
    <g id="Group_85" data-name="Group 85" transform="translate(616.435 474.474)">
      <g id="Group_84" data-name="Group 84" transform="translate(-422 -369)">
        <g id="Group_82" data-name="Group 82" transform="translate(0 0)">
          <g id="Group_79" data-name="Group 79" transform="translate(12.049 0)" opacity="0.3" style="mix-blend-mode: multiply;isolation: isolate">
            <path id="Path_196" data-name="Path 196" d="M136.472,113.544l1.509-.091c1.288-.034,4.217.956,4.2,2.213l-.007.448c.195,1.922-2.718,2.294-4.005,2.317l-1.774.06a2.194,2.194,0,0,1-2.082-1.325,7.35,7.35,0,0,0-1.992.613l-.018-1.946a9.243,9.243,0,0,1,1.917-.494A2.4,2.4,0,0,1,136.472,113.544Z" transform="translate(-132.297 -112.79)" fill="url(#linear-gradient-2)"/>
          </g>
          <g id="Group_81" data-name="Group 81">
            <path id="Path_198" data-name="Path 198" d="M72.968,941.361a25.146,25.146,0,0,0,10.309-2.019c2.675-1.242,4.057-2.813,3.894-4.424s-1.764-2.783-4.757-3.49c-14.346-3.391-60.372-4.37-77.149-4.206a51.183,51.183,0,0,1-12.009-.98c-2.8-.668-3.442-1.433-3.461-1.6.013-.124.451-.72,2.363-1.323a33.176,33.176,0,0,1,8.178-1.165,8.438,8.438,0,0,0,6.8-4.3,14.889,14.889,0,0,0,1.776-3.965l-1.845-.468c-.017.066-1.755,6.625-6.8,6.831a34.355,34.355,0,0,0-8.829,1.3c-2.38.779-3.57,1.835-3.538,3.137.037,1.469,1.65,2.6,4.794,3.373a54.006,54.006,0,0,0,12.6,1.063c16.708-.164,62.506.8,76.692,4.155,2.356.557,3.251,1.334,3.3,1.83.056.554-.8,1.574-2.8,2.505-6.5,3.015-19.594,3.171-28.376-5.923l-1.369,1.322a27.394,27.394,0,0,0,16.5,8.116A30.466,30.466,0,0,0,72.968,941.361Z" transform="translate(12.109 -846.006)" fill="url(#linear-gradient-3)"/>
            <g id="Group_80" data-name="Group 80" transform="translate(0.142)">
              <path id="Path_199" data-name="Path 199" d="M444.6,110.788l1-.066a3.036,3.036,0,0,0,2.911-2.424l.069-.469a2.018,2.018,0,0,0-2.209-2.311l-1.678.1c-1.387.037-4.716,1.116-4.908,2.409l-.068.462C439.525,109.783,443.214,110.813,444.6,110.788Z" transform="translate(-402.151 -105.518)" fill="url(#linear-gradient-4)"/>
              <path id="Path_200" data-name="Path 200" d="M259.639,187.509l13.778-7.737a27.278,27.278,0,0,0,8.758-7.805,24.325,24.325,0,0,0,4.341-10.528l3.82-25.766c.746-5.032-2.9-9.066-8.148-9.3a.817.817,0,0,0-.839.7l-.048.32a.82.82,0,0,0,.748.936c3.988.332,6.713,3.475,6.138,7.357l-3.806,25.671a23.7,23.7,0,0,1-11.946,16.77l-13.727,7.756Z" transform="translate(-236.252 -124.637)" fill="#fff"/>
              <path id="Path_201" data-name="Path 201" d="M245.2,554.25a1.831,1.831,0,0,0,1.055-.23l13.8-7.729a28.122,28.122,0,0,0,9.044-8.047,25.077,25.077,0,0,0,4.483-10.865,1.573,1.573,0,0,0-1.609-1.778,2.052,2.052,0,0,0-2.1,1.641,22.9,22.9,0,0,1-11.524,16.194L244.628,551.2a1.67,1.67,0,0,0-.705,2.261A1.608,1.608,0,0,0,245.2,554.25Z" transform="translate(-222.516 -490.547)" fill="url(#linear-gradient-3)"/>
              <path id="Path_202" data-name="Path 202" d="M14.623,194.877l1.364-1.415-10.5-9.337A18.387,18.387,0,0,1-.35,167.538l3.507-23.654a8.646,8.646,0,0,1,8.133-7.1l.272-1.832A10.9,10.9,0,0,0,1.345,143.9l-3.5,23.574a20.916,20.916,0,0,0,.88,9.9,19.592,19.592,0,0,0,5.438,8.157Z" transform="translate(3.055 -132.497)" fill="#fff"/>
              <path id="Path_203" data-name="Path 203" d="M7.708,536.11a1.813,1.813,0,0,0,1.455-.549,1.589,1.589,0,0,0-.024-2.313l-10.524-9.333a17.767,17.767,0,0,1-5.65-16.043,1.38,1.38,0,0,0-1.337-1.627,1.8,1.8,0,0,0-1.793,1.512,21.561,21.561,0,0,0,.9,10.2,20.2,20.2,0,0,0,5.594,8.4l10.436,9.352A1.61,1.61,0,0,0,7.708,536.11Z" transform="translate(10.408 -472.807)" fill="url(#linear-gradient-3)"/>
              <path id="Path_204" data-name="Path 204" d="M152.322,118.431l-1.782.06a1.867,1.867,0,0,1-1.961-2.2l.066-.442a2.814,2.814,0,0,1,2.629-2.3l1.521-.091c1.293-.034,4.091.956,3.9,2.213l-.066.448C156.574,118.036,153.613,118.408,152.322,118.431Z" transform="translate(-135.291 -112.79)" fill="url(#linear-gradient-4)"/>
              <path id="Path_205" data-name="Path 205" d="M144.562,785.624a9.727,9.727,0,0,0,6.1-1.523l2.671-1.711a2.321,2.321,0,0,0,.789-3.252,2.466,2.466,0,0,0-3.377-.548l-2.645,1.718a4.315,4.315,0,0,1-5.388-.41l-2.077-2.083a2.381,2.381,0,0,0-3.3.054,2.236,2.236,0,0,0-.165,3.2l2.051,2.086A8.5,8.5,0,0,0,144.562,785.624Z" transform="translate(-124.306 -721.132)" fill="#a2a7ae"/>
              <path id="Path_206" data-name="Path 206" d="M198.262,826.7a2.491,2.491,0,0,0,2.711-2.06l.968-6.525a2.176,2.176,0,0,0-2.036-2.493,2.529,2.529,0,0,0-2.7,2.09l-.959,6.469A2.206,2.206,0,0,0,198.262,826.7Z" transform="translate(-178.984 -756.365)" fill="#a2a7ae"/>
              <path id="Path_207" data-name="Path 207" d="M217.323,130c-.145.711.147,1.372.653,1.475s1.034-.389,1.179-1.1-.147-1.372-.653-1.475S217.468,129.288,217.323,130Z" transform="translate(-198.286 -126.936)" fill="url(#linear-gradient-8)"/>
            </g>
          </g>
        </g>
        <g id="Group_83" data-name="Group 83" transform="translate(50.568 67.291)">
          <path id="Path_208" data-name="Path 208" d="M595.762,926.075a14.289,14.289,0,0,0,12.647,17.052,17.617,17.617,0,0,0,19.064-14,14.287,14.287,0,0,0-13.3-17.114A17.67,17.67,0,0,0,595.762,926.075Z" transform="translate(-595.368 -911.966)" fill="url(#linear-gradient-9)"/>
          <path id="Path_209" data-name="Path 209" d="M594.17,929.354a14.14,14.14,0,0,0,12.366,16.91,17.258,17.258,0,0,0,18.64-13.882,14.126,14.126,0,0,0-13-16.972A17.32,17.32,0,0,0,594.17,929.354Z" transform="translate(-593.914 -915.08)" fill="url(#linear-gradient-10)"/>
          <path id="Path_210" data-name="Path 210" d="M610.467,944.729a12.869,12.869,0,0,0,11.28,15.394,15.71,15.71,0,0,0,16.939-12.638A12.857,12.857,0,0,0,626.88,932.04,15.761,15.761,0,0,0,610.467,944.729Z" transform="translate(-608.872 -930.324)" fill="url(#linear-gradient-11)"/>
          <path id="Path_211" data-name="Path 211" d="M651.468,983.188a9.691,9.691,0,0,0,8.544,11.6,11.837,11.837,0,0,0,12.709-9.525,9.685,9.685,0,0,0-8.842-11.629A11.867,11.867,0,0,0,651.468,983.188Z" transform="translate(-646.505 -968.453)" fill="#f4f7fa" opacity="0.3" style="mix-blend-mode: soft-light;isolation: isolate"/>
          <path id="Path_212" data-name="Path 212" d="M720.628,1047.353a4.4,4.4,0,0,0,3.917,5.272,5.379,5.379,0,0,0,5.734-4.33,4.4,4.4,0,0,0-3.978-5.278A5.385,5.385,0,0,0,720.628,1047.353Z" transform="translate(-709.981 -1032.063)" fill="#f4f7fa" opacity="0.3" style="mix-blend-mode: soft-light;isolation: isolate"/>
          <path id="Path_213" data-name="Path 213" d="M671.074,1001.556c3.427-3.932,1.078-7.733,4.346-11.527,4.158-4.828,10.92-2.112,13.8-6.52a6.144,6.144,0,0,0,.854-2.091,13.035,13.035,0,0,1,3.173,11.366,15.709,15.709,0,0,1-16.939,12.638,13.163,13.163,0,0,1-6.546-2.617A9.722,9.722,0,0,0,671.074,1001.556Z" transform="translate(-663.429 -975.623)" fill="#f4f7fa" opacity="0.3" style="mix-blend-mode: soft-light;isolation: isolate"/>
        </g>
      </g>
    </g>
  </g>
</svg>
