<svg xmlns="http://www.w3.org/2000/svg" width="244.591" height="252.59" viewBox="0 0 244.591 252.59">
  <g id="Group_190" data-name="Group 190" transform="translate(-84.205 -67.205)">
    <g id="Group_188" data-name="Group 188" transform="translate(26.205 -3.796)" opacity="0.06">
      <g id="verified" transform="translate(105.474 126.474)">
        <g id="Group_184" data-name="Group 184" transform="translate(0 0)">
          <g id="Group_183" data-name="Group 183">
            <path id="Path_279" data-name="Path 279" d="M127.91,21.946A74.928,74.928,0,0,0,21.946,127.91,74.928,74.928,0,1,0,127.91,21.946ZM74.928,141.076a66.147,66.147,0,1,1,66.147-66.147A66.222,66.222,0,0,1,74.928,141.076Z" transform="translate(0 0)"/>
          </g>
        </g>
        <g id="Group_186" data-name="Group 186" transform="translate(37.845 49.601)">
          <g id="Group_185" data-name="Group 185">
            <path id="Path_280" data-name="Path 280" d="M202.181,170.753a4.391,4.391,0,0,0-6.208,0L157.2,209.522,136.8,189.114a4.39,4.39,0,1,0-6.209,6.209L154.1,218.835a4.39,4.39,0,0,0,6.208,0l41.874-41.874A4.39,4.39,0,0,0,202.181,170.753Z" transform="translate(-129.301 -169.467)"/>
          </g>
        </g>
      </g>
      <path id="Subtraction_1" data-name="Subtraction 1" d="M97.59,195.178A98.3,98.3,0,0,1,77.922,193.2a97.053,97.053,0,0,1-34.9-14.684A97.861,97.861,0,0,1,7.669,135.575a97.065,97.065,0,0,1-5.687-18.318,98.529,98.529,0,0,1,0-39.335,97.07,97.07,0,0,1,14.684-34.9A97.877,97.877,0,0,1,59.6,7.669,97.067,97.067,0,0,1,77.922,1.983a98.533,98.533,0,0,1,39.335,0,97.053,97.053,0,0,1,34.9,14.684A97.872,97.872,0,0,1,187.51,59.6,97.146,97.146,0,0,1,193.2,77.921a98.553,98.553,0,0,1,0,39.335,97.064,97.064,0,0,1-14.684,34.9,97.872,97.872,0,0,1-42.937,35.357,97.1,97.1,0,0,1-18.319,5.686A98.3,98.3,0,0,1,97.59,195.178Zm0-186.961A89.371,89.371,0,1,0,186.96,97.589,89.472,89.472,0,0,0,97.59,8.218Z" transform="translate(82.706 103.707)" opacity="0.06"/>
      <path id="Subtraction_2" data-name="Subtraction 2" d="M122.3,244.59a123.2,123.2,0,0,1-24.646-2.484,121.629,121.629,0,0,1-43.73-18.4A122.649,122.649,0,0,1,9.611,169.9a121.657,121.657,0,0,1-7.126-22.956,123.476,123.476,0,0,1,0-49.294,121.632,121.632,0,0,1,18.4-43.729A122.653,122.653,0,0,1,74.693,9.611,121.681,121.681,0,0,1,97.649,2.485a123.484,123.484,0,0,1,49.293,0,121.626,121.626,0,0,1,43.73,18.4,122.646,122.646,0,0,1,44.308,53.806,121.694,121.694,0,0,1,7.126,22.956,123.5,123.5,0,0,1,0,49.294,121.631,121.631,0,0,1-18.4,43.73A122.649,122.649,0,0,1,169.9,234.98a121.675,121.675,0,0,1-22.957,7.126A123.2,123.2,0,0,1,122.3,244.59Zm0-234.292a112,112,0,1,0,112,112A112.123,112.123,0,0,0,122.3,10.3Z" transform="translate(58 79)" opacity="0.02"/>
    </g>
    <g id="Group_187" data-name="Group 187" transform="translate(26.205 -11.796)">
      <g id="verified-2" data-name="verified" transform="translate(105.474 126.474)">
        <g id="Group_184-2" data-name="Group 184" transform="translate(0 0)">
          <g id="Group_183-2" data-name="Group 183">
            <path id="Path_279-2" data-name="Path 279" d="M127.91,21.946A74.928,74.928,0,0,0,21.946,127.91,74.928,74.928,0,1,0,127.91,21.946ZM74.928,141.076a66.147,66.147,0,1,1,66.147-66.147A66.222,66.222,0,0,1,74.928,141.076Z" transform="translate(0 0)" fill="#0da71d"/>
          </g>
        </g>
        <g id="Group_186-2" data-name="Group 186" transform="translate(37.845 49.601)">
          <g id="Group_185-2" data-name="Group 185">
            <path id="Path_280-2" data-name="Path 280" d="M202.181,170.753a4.391,4.391,0,0,0-6.208,0L157.2,209.522,136.8,189.114a4.39,4.39,0,1,0-6.209,6.209L154.1,218.835a4.39,4.39,0,0,0,6.208,0l41.874-41.874A4.39,4.39,0,0,0,202.181,170.753Z" transform="translate(-129.301 -169.467)" fill="#0da71d"/>
          </g>
        </g>
      </g>
      <path id="Subtraction_1-2" data-name="Subtraction 1" d="M97.59,195.178A98.3,98.3,0,0,1,77.922,193.2a97.053,97.053,0,0,1-34.9-14.684A97.861,97.861,0,0,1,7.669,135.575a97.065,97.065,0,0,1-5.687-18.318,98.529,98.529,0,0,1,0-39.335,97.07,97.07,0,0,1,14.684-34.9A97.877,97.877,0,0,1,59.6,7.669,97.067,97.067,0,0,1,77.922,1.983a98.533,98.533,0,0,1,39.335,0,97.053,97.053,0,0,1,34.9,14.684A97.872,97.872,0,0,1,187.51,59.6,97.146,97.146,0,0,1,193.2,77.921a98.553,98.553,0,0,1,0,39.335,97.064,97.064,0,0,1-14.684,34.9,97.872,97.872,0,0,1-42.937,35.357,97.1,97.1,0,0,1-18.319,5.686A98.3,98.3,0,0,1,97.59,195.178Zm0-186.961A89.371,89.371,0,1,0,186.96,97.589,89.472,89.472,0,0,0,97.59,8.218Z" transform="translate(82.706 103.707)" fill="#3c46c5" opacity="0.06"/>
      <path id="Subtraction_2-2" data-name="Subtraction 2" d="M122.3,244.59a123.2,123.2,0,0,1-24.646-2.484,121.629,121.629,0,0,1-43.73-18.4A122.649,122.649,0,0,1,9.611,169.9a121.657,121.657,0,0,1-7.126-22.956,123.476,123.476,0,0,1,0-49.294,121.632,121.632,0,0,1,18.4-43.729A122.653,122.653,0,0,1,74.693,9.611,121.681,121.681,0,0,1,97.649,2.485a123.484,123.484,0,0,1,49.293,0,121.626,121.626,0,0,1,43.73,18.4,122.646,122.646,0,0,1,44.308,53.806,121.694,121.694,0,0,1,7.126,22.956,123.5,123.5,0,0,1,0,49.294,121.631,121.631,0,0,1-18.4,43.73A122.649,122.649,0,0,1,169.9,234.98a121.675,121.675,0,0,1-22.957,7.126A123.2,123.2,0,0,1,122.3,244.59Zm0-234.292a112,112,0,1,0,112,112A112.123,112.123,0,0,0,122.3,10.3Z" transform="translate(58 79)" fill="#3c46c5" opacity="0.02"/>
    </g>
  </g>
</svg>
