<svg xmlns="http://www.w3.org/2000/svg" width="20" height="24" viewBox="0 0 20 24">
  <path id="Union_9" data-name="Union 9" d="M-5725,1888.5v-4.522a5.506,5.506,0,0,1-5-5.476v-5a1.5,1.5,0,0,1,1.5-1.5h.5v-.5a.5.5,0,0,1,.5-.5.5.5,0,0,1,.5.5v2a.5.5,0,0,1-.5.5.5.5,0,0,1-.5-.5v-.5h-.5a.5.5,0,0,0-.5.5v5a4.506,4.506,0,0,0,4.5,4.5,4.505,4.505,0,0,0,4.5-4.5v-5a.5.5,0,0,0-.5-.5h-.5v.5a.5.5,0,0,1-.5.5.5.5,0,0,1-.5-.5v-2a.5.5,0,0,1,.5-.5.5.5,0,0,1,.5.5v.5h.5a1.5,1.5,0,0,1,1.5,1.5v5a5.506,5.506,0,0,1-5,5.477v4.522a5.506,5.506,0,0,0,5.5,5.5,5.506,5.506,0,0,0,5.5-5.5v-1.55a2.5,2.5,0,0,1-2-2.449,2.5,2.5,0,0,1,2.5-2.5,2.5,2.5,0,0,1,2.5,2.5,2.5,2.5,0,0,1-2,2.449v1.55a6.507,6.507,0,0,1-6.5,6.5A6.507,6.507,0,0,1-5725,1888.5Zm11-4a1.5,1.5,0,0,0,1.5,1.5,1.5,1.5,0,0,0,1.5-1.5,1.5,1.5,0,0,0-1.5-1.5A1.5,1.5,0,0,0-5714,1884.5Z" transform="translate(5730 -1871)" fill="#2d4b58"/>
</svg>
